<svg width="24" height="25" viewBox="0 0 24 25" fill="none" xmlns="http://www.w3.org/2000/svg">
<g clip-path="url(#clip0_499_10802)">
<path d="M7 0.5H4C2.93913 0.5 1.92172 0.921427 1.17157 1.67157C0.421427 2.42172 0 3.43913 0 4.5L0 7.5C0 8.56087 0.421427 9.57828 1.17157 10.3284C1.92172 11.0786 2.93913 11.5 4 11.5H7C8.06087 11.5 9.07828 11.0786 9.82843 10.3284C10.5786 9.57828 11 8.56087 11 7.5V4.5C11 3.43913 10.5786 2.42172 9.82843 1.67157C9.07828 0.921427 8.06087 0.5 7 0.5V0.5ZM9 7.5C9 8.03043 8.78929 8.53914 8.41421 8.91421C8.03914 9.28929 7.53043 9.5 7 9.5H4C3.46957 9.5 2.96086 9.28929 2.58579 8.91421C2.21071 8.53914 2 8.03043 2 7.5V4.5C2 3.96957 2.21071 3.46086 2.58579 3.08579C2.96086 2.71071 3.46957 2.5 4 2.5H7C7.53043 2.5 8.03914 2.71071 8.41421 3.08579C8.78929 3.46086 9 3.96957 9 4.5V7.5Z" fill="#718088" fill-opacity="0.5"/>
<path d="M7 13.5H4C2.93913 13.5 1.92172 13.9214 1.17157 14.6716C0.421427 15.4217 0 16.4391 0 17.5L0 20.5C0 21.5609 0.421427 22.5783 1.17157 23.3284C1.92172 24.0786 2.93913 24.5 4 24.5H7C8.06087 24.5 9.07828 24.0786 9.82843 23.3284C10.5786 22.5783 11 21.5609 11 20.5V17.5C11 16.4391 10.5786 15.4217 9.82843 14.6716C9.07828 13.9214 8.06087 13.5 7 13.5ZM9 20.5C9 21.0304 8.78929 21.5392 8.41421 21.9142C8.03914 22.2893 7.53043 22.5 7 22.5H4C3.46957 22.5 2.96086 22.2893 2.58579 21.9142C2.21071 21.5392 2 21.0304 2 20.5V17.5C2 16.9696 2.21071 16.4609 2.58579 16.0858C2.96086 15.7107 3.46957 15.5 4 15.5H7C7.53043 15.5 8.03914 15.7107 8.41421 16.0858C8.78929 16.4609 9 16.9696 9 17.5V20.5Z" fill="#718088" fill-opacity="0.5"/>
<path d="M22.2932 19.5492L20.0002 21.8392V3.13321L22.2932 5.42321C22.3861 5.51606 22.4964 5.58969 22.6178 5.63992C22.7391 5.69014 22.8692 5.71596 23.0005 5.71592C23.1319 5.71587 23.2619 5.68995 23.3833 5.63965C23.5046 5.58934 23.6148 5.51562 23.7077 5.42271C23.8005 5.3298 23.8742 5.21952 23.9244 5.09815C23.9746 4.97678 24.0004 4.84671 24.0004 4.71536C24.0003 4.58401 23.9744 4.45396 23.9241 4.33263C23.8738 4.21129 23.8001 4.10106 23.7072 4.00821L21.1202 1.42521C20.5577 0.86341 19.7952 0.547852 19.0002 0.547852C18.2052 0.547852 17.4427 0.86341 16.8802 1.42521L14.2932 4.00821C14.2003 4.10106 14.1266 4.21129 14.0763 4.33263C14.026 4.45396 14 4.58401 14 4.71536C14 4.84671 14.0258 4.97678 14.076 5.09815C14.1262 5.21952 14.1999 5.3298 14.2927 5.42271C14.3855 5.51562 14.4958 5.58934 14.6171 5.63965C14.7384 5.68995 14.8685 5.71587 14.9998 5.71592C15.1312 5.71596 15.2613 5.69014 15.3826 5.63992C15.504 5.58969 15.6143 5.51606 15.7072 5.42321L18.0002 3.13321V21.8392L15.7072 19.5492C15.6143 19.4564 15.504 19.3827 15.3826 19.3325C15.2613 19.2823 15.1312 19.2565 14.9998 19.2565C14.8685 19.2566 14.7384 19.2825 14.6171 19.3328C14.4958 19.3831 14.3855 19.4568 14.2927 19.5497C14.1999 19.6426 14.1262 19.7529 14.076 19.8743C14.0258 19.9957 14 20.1257 14 20.2571C14 20.3884 14.026 20.5185 14.0763 20.6398C14.1266 20.7611 14.2003 20.8714 14.2932 20.9642L16.8802 23.5472C17.4427 24.109 18.2052 24.4246 19.0002 24.4246C19.7952 24.4246 20.5577 24.109 21.1202 23.5472L23.7072 20.9642C23.8001 20.8714 23.8738 20.7611 23.9241 20.6398C23.9744 20.5185 24.0003 20.3884 24.0004 20.2571C24.0004 20.1257 23.9746 19.9957 23.9244 19.8743C23.8742 19.7529 23.8005 19.6426 23.7077 19.5497C23.6148 19.4568 23.5046 19.3831 23.3833 19.3328C23.2619 19.2825 23.1319 19.2566 23.0005 19.2565C22.8692 19.2565 22.7391 19.2823 22.6178 19.3325C22.4964 19.3827 22.3861 19.4564 22.2932 19.5492Z" fill="#718088" fill-opacity="0.5"/>
</g>
<defs>
<clipPath id="clip0_499_10802">
<rect width="24" height="24" fill="white" transform="translate(0 0.5)"/>
</clipPath>
</defs>
</svg>
