<svg width="24" height="24" viewBox="0 0 24 24" fill="none" xmlns="http://www.w3.org/2000/svg">
<path d="M19.7999 4.41983C18.6275 2.83123 17.0457 1.59089 15.2233 0.831258C13.401 0.0716278 11.4065 -0.178762 9.4529 0.106828C7.55274 0.376977 5.75634 1.13959 4.24215 2.3189C2.72795 3.49821 1.54867 5.05318 0.821445 6.82933C0.0942225 8.60548 -0.155627 10.541 0.0967171 12.4436C0.349061 14.3462 1.09482 16.1497 2.2599 17.6748C2.75596 18.3585 3.01574 19.1853 2.9999 20.0298V21.0008C2.9999 21.7965 3.31597 22.5595 3.87858 23.1221C4.44119 23.6848 5.20425 24.0008 5.9999 24.0008H12.9999C13.7955 24.0008 14.5586 23.6848 15.1212 23.1221C15.6838 22.5595 15.9999 21.7965 15.9999 21.0008H16.4939C17.7057 20.9979 18.8755 20.5562 19.7868 19.7574C20.698 18.9586 21.2892 17.8568 21.4509 16.6558L21.6699 15.0008H21.9999C22.2641 15.0064 22.5266 14.9585 22.7718 14.86C23.017 14.7614 23.2397 14.6143 23.4266 14.4275C23.6134 14.2406 23.7605 14.0179 23.859 13.7728C23.9576 13.5276 24.0055 13.265 23.9999 13.0008C23.9999 11.5808 21.0679 5.98583 19.7999 4.41983ZM20.7929 13.0008C20.5504 13.0009 20.3163 13.0891 20.134 13.249C19.9517 13.4088 19.8337 13.6295 19.8019 13.8698L19.4679 16.3948C19.3708 17.1152 19.016 17.7761 18.4693 18.2552C17.9225 18.7342 17.2208 18.9991 16.4939 19.0008H14.9999C14.7347 19.0008 14.4803 19.1062 14.2928 19.2937C14.1053 19.4813 13.9999 19.7356 13.9999 20.0008V21.0008C13.9999 21.266 13.8945 21.5204 13.707 21.7079C13.5195 21.8955 13.2651 22.0008 12.9999 22.0008H5.9999C5.73468 22.0008 5.48033 21.8955 5.29279 21.7079C5.10525 21.5204 4.9999 21.266 4.9999 21.0008V20.0298C5.01501 18.746 4.6109 17.4922 3.8489 16.4588C2.89676 15.2116 2.28725 13.7371 2.08083 12.1816C1.87441 10.6261 2.07826 9.04368 2.67216 7.59128C3.26606 6.13889 4.22936 4.867 5.46651 3.90179C6.70366 2.93658 8.17166 2.3116 9.7249 2.08883C10.149 2.02995 10.5767 2.00055 11.0049 2.00083C12.41 1.99893 13.7959 2.32825 15.0499 2.96207C16.304 3.59588 17.3911 4.51636 18.2229 5.64883C19.8023 7.92122 21.0724 10.3936 21.9999 13.0008H20.7929ZM16.1999 8.01183C16.1345 7.89785 16.0472 7.79789 15.9432 7.71765C15.8391 7.63742 15.7202 7.57848 15.5934 7.54421C15.4665 7.50994 15.3341 7.50101 15.2038 7.51793C15.0735 7.53485 14.9478 7.57729 14.8339 7.64283L13.8519 8.20683C13.3426 7.69061 12.7024 7.32279 11.9999 7.14283V6.00083C11.9999 5.73561 11.8945 5.48126 11.707 5.29372C11.5195 5.10618 11.2651 5.00083 10.9999 5.00083C10.7347 5.00083 10.4803 5.10618 10.2928 5.29372C10.1053 5.48126 9.9999 5.73561 9.9999 6.00083V7.14283C9.29634 7.32229 8.65502 7.69014 8.1449 8.20683L7.1629 7.64283C7.04904 7.57717 6.92337 7.53457 6.79305 7.51748C6.66273 7.50039 6.53033 7.50913 6.40339 7.54321C6.27645 7.57729 6.15747 7.63604 6.05324 7.7161C5.949 7.79616 5.86156 7.89597 5.7959 8.00983C5.73024 8.12368 5.68764 8.24936 5.67055 8.37967C5.65346 8.50999 5.6622 8.6424 5.69628 8.76934C5.73036 8.89627 5.78911 9.01526 5.86917 9.11949C5.94923 9.22372 6.04904 9.31117 6.1629 9.37683L7.1559 9.94783C7.05648 10.2901 7.004 10.6444 6.9999 11.0008C7.00497 11.3574 7.05846 11.7116 7.1589 12.0538L6.1659 12.6248C5.93595 12.7574 5.76811 12.976 5.69928 13.2323C5.63046 13.4887 5.66629 13.7619 5.7989 13.9918C5.93151 14.2218 6.15003 14.3896 6.40639 14.4584C6.66275 14.5273 6.93595 14.4914 7.1659 14.3588L8.1479 13.7948C8.65719 14.311 9.29742 14.6789 9.9999 14.8588V16.0008C9.9999 16.266 10.1053 16.5204 10.2928 16.7079C10.4803 16.8955 10.7347 17.0008 10.9999 17.0008C11.2651 17.0008 11.5195 16.8955 11.707 16.7079C11.8945 16.5204 11.9999 16.266 11.9999 16.0008V14.8588C12.7034 14.6794 13.3448 14.3115 13.8549 13.7948L14.8369 14.3588C14.9508 14.4245 15.0764 14.4671 15.2067 14.4842C15.3371 14.5013 15.4695 14.4925 15.5964 14.4584C15.7233 14.4244 15.8423 14.3656 15.9466 14.2856C16.0508 14.2055 16.1382 14.1057 16.2039 13.9918C16.2696 13.878 16.3122 13.7523 16.3292 13.622C16.3463 13.4917 16.3376 13.3593 16.3035 13.2323C16.2694 13.1054 16.2107 12.9864 16.1306 12.8822C16.0506 12.7779 15.9508 12.6905 15.8369 12.6248L14.8439 12.0538C14.9433 11.7115 14.9958 11.3573 14.9999 11.0008C14.9948 10.6442 14.9413 10.29 14.8409 9.94783L15.8339 9.37683C16.0633 9.24422 16.2307 9.02598 16.2993 8.77005C16.3679 8.51412 16.3322 8.24142 16.1999 8.01183ZM10.9999 13.0008C10.6043 13.0008 10.2177 12.8835 9.88876 12.6638C9.55986 12.444 9.30351 12.1316 9.15214 11.7662C9.00076 11.4007 8.96116 10.9986 9.03833 10.6106C9.1155 10.2227 9.30598 9.86632 9.58568 9.58661C9.86539 9.30691 10.2218 9.11643 10.6097 9.03926C10.9977 8.96209 11.3998 9.00169 11.7653 9.15307C12.1307 9.30444 12.4431 9.56079 12.6628 9.88969C12.8826 10.2186 12.9999 10.6053 12.9999 11.0008C12.9999 11.5313 12.7892 12.04 12.4141 12.415C12.039 12.7901 11.5303 13.0008 10.9999 13.0008Z" fill="#EEF1F2"/>
</svg>
