<svg width="24" height="24" viewBox="0 0 24 24" fill="none" xmlns="http://www.w3.org/2000/svg">
<path d="M10.9703 22.1249H2.81505C2.51204 22.1249 2.23594 21.9844 2.05742 21.7395C1.87885 21.4944 1.82968 21.1883 1.92247 20.8997C2.849 18.0188 5.6746 16.0067 8.79377 16.0067C10.2451 16.0067 11.6389 16.4439 12.8244 17.2708C13.249 17.5669 13.8332 17.4628 14.1295 17.0382C14.4256 16.6135 14.3215 16.0291 13.8969 15.7329C13.3156 15.3269 12.6879 14.9918 12.0272 14.7347C12.8998 13.9412 13.4787 12.8302 13.5793 11.586C14.9023 10.297 16.6366 9.59073 18.4957 9.59073C19.9471 9.59073 21.3408 10.0278 22.5263 10.8547C22.9509 11.1509 23.5352 11.0468 23.8314 10.6221C24.1275 10.1975 24.0234 9.61313 23.5988 9.3169C23.0175 8.91092 22.3899 8.5758 21.7292 8.31865C22.6917 7.44339 23.2968 6.18163 23.2968 4.78116C23.2969 2.14486 21.1523 0 18.5162 0C15.8801 0 13.7356 2.14486 13.7356 4.78125C13.7356 6.17605 14.3359 7.43329 15.2916 8.30813C15.1606 8.35859 15.0307 8.41215 14.9021 8.46873C14.3195 8.72473 13.766 9.04248 13.2511 9.41655C12.5436 7.6595 10.8213 6.41606 8.81425 6.41606C6.17815 6.41606 4.03359 8.56092 4.03359 11.1973C4.03359 12.588 4.6304 13.842 5.58125 14.7165C3.0387 15.6694 0.977109 17.7159 0.137823 20.3257C-0.14053 21.1913 0.00691083 22.1091 0.542393 22.8439C1.07778 23.5786 1.90608 24 2.81509 24H10.9704C11.4881 24 11.9077 23.5803 11.9077 23.0625C11.9077 22.5448 11.488 22.1249 10.9703 22.1249ZM18.5163 1.87497C20.1186 1.87497 21.4222 3.1787 21.4222 4.78121C21.4222 6.38371 20.1186 7.68744 18.5163 7.68744C16.914 7.68744 15.6104 6.38371 15.6104 4.78121C15.6104 3.1787 16.914 1.87497 18.5163 1.87497ZM8.81429 8.29099C10.4166 8.29099 11.7202 9.59472 11.7202 11.1972C11.7202 12.7997 10.4166 14.1035 8.81429 14.1035C7.21198 14.1035 5.90839 12.7997 5.90839 11.1972C5.90839 9.59472 7.21198 8.29099 8.81429 8.29099Z" fill="#EEF1F2"/>
</svg>
