<svg width="24" height="25" viewBox="0 0 24 25" fill="none" xmlns="http://www.w3.org/2000/svg">
<g clip-path="url(#clip0_499_10804)">
<path d="M14 24.5C13.7836 24.5 13.5731 24.4298 13.4 24.3L9.39998 21.3C9.27578 21.2069 9.17498 21.0861 9.10555 20.9472C9.03613 20.8084 8.99998 20.6552 8.99998 20.5V14.88L1.98398 6.987C1.4857 6.42488 1.16036 5.73082 1.04706 4.98823C0.933761 4.24565 1.03732 3.48615 1.3453 2.80101C1.65328 2.11588 2.15257 1.53426 2.78316 1.12607C3.41375 0.717873 4.14881 0.500474 4.89998 0.5H19.1C19.8511 0.500881 20.586 0.718639 21.2163 1.12711C21.8466 1.53557 22.3456 2.11737 22.6533 2.80259C22.9609 3.4878 23.0641 4.24727 22.9506 4.98975C22.837 5.73222 22.5114 6.4261 22.013 6.988L15 14.88V23.5C15 23.7652 14.8946 24.0196 14.7071 24.2071C14.5196 24.3946 14.2652 24.5 14 24.5ZM11 20L13 21.5V14.5C13.0002 14.2552 13.0902 14.0189 13.253 13.836L20.521 5.659C20.7633 5.38508 20.9215 5.04704 20.9764 4.68545C21.0314 4.32387 20.9808 3.9541 20.8307 3.62056C20.6807 3.28701 20.4376 3.00386 20.1306 2.80509C19.8236 2.60632 19.4657 2.50038 19.1 2.5H4.89998C4.53443 2.50055 4.1768 2.60655 3.86998 2.80527C3.56317 3.00399 3.32019 3.28699 3.17019 3.62035C3.02019 3.95371 2.96954 4.32326 3.02431 4.68468C3.07908 5.0461 3.23695 5.38405 3.47898 5.658L10.748 13.836C10.9104 14.019 11.0001 14.2553 11 14.5V20Z" fill="#718088" fill-opacity="0.5"/>
</g>
<defs>
<clipPath id="clip0_499_10804">
<rect width="24" height="24" fill="white" transform="translate(0 0.5)"/>
</clipPath>
</defs>
</svg>
