<svg width="24" height="24" viewBox="0 0 24 24" fill="none" xmlns="http://www.w3.org/2000/svg">
<g clip-path="url(#clip0_459_250)">
<path d="M22.0568 5.22998L14.6828 1.71698C13.0596 0.747414 11.0393 0.730211 9.39979 1.67198L1.94282 5.22998C1.91483 5.24399 1.88582 5.25899 1.85882 5.27498C0.0891931 6.28682 -0.525151 8.54165 0.486693 10.3113C0.829677 10.9112 1.33419 11.4027 1.94282 11.73L3.99983 12.71V17.61C4.00105 19.8011 5.42676 21.7368 7.51883 22.388C8.97472 22.8092 10.4843 23.0154 11.9998 23C13.5151 23.017 15.0247 22.8125 16.4809 22.393C18.5729 21.7419 19.9986 19.8061 19.9999 17.615V12.708L21.9999 11.752V20C21.9999 20.5522 22.4476 20.9999 22.9999 20.9999C23.5521 20.9999 23.9998 20.5522 23.9998 20V7.99996C24.0065 6.8257 23.0793 5.74091 22.0568 5.22998ZM17.9998 17.615C18.0003 18.9256 17.15 20.0849 15.8998 20.478C14.632 20.8402 13.3183 21.0161 11.9998 21C10.6813 21.0161 9.36758 20.8402 8.0998 20.478C6.8496 20.0848 5.99929 18.9256 5.9998 17.615V13.663L9.31682 15.243C10.1353 15.729 11.07 15.9844 12.0218 15.982C12.9278 15.9884 13.8186 15.7486 14.5988 15.288L17.9998 13.663V17.615ZM21.1998 9.92498L13.6578 13.525C12.6062 14.1373 11.3028 14.12 10.2678 13.48L2.8888 9.96998C2.06629 9.52645 1.75907 8.50012 2.2026 7.67765C2.3526 7.39949 2.57751 7.16891 2.85182 7.01198L10.3468 3.43199C11.3987 2.82102 12.7015 2.83832 13.7368 3.47699L21.1108 6.98999C21.6531 7.29112 21.9924 7.85976 21.9998 8.48001C22.0008 9.06754 21.6982 9.61391 21.1998 9.92498Z" fill="#EEF1F2"/>
</g>
<defs>
<clipPath id="clip0_459_250">
<rect width="24" height="24" fill="white"/>
</clipPath>
</defs>
</svg>
