<svg width="76" height="76" viewBox="0 0 76 76" fill="none" xmlns="http://www.w3.org/2000/svg">
<mask id="path-1-outside-1_252_3677" maskUnits="userSpaceOnUse" x="-0.5" y="0.10498" width="77" height="75" fill="black">
<rect fill="white" x="-0.5" y="0.10498" width="77" height="75"/>
<path fill-rule="evenodd" clip-rule="evenodd" d="M18.3807 66.9715L19.3297 68.6276L19.3314 68.6306C20.1344 70.0411 19.6252 71.8409 18.205 72.633L14.8396 74.5166L14.836 74.5186C13.4077 75.3117 11.585 74.8088 10.7825 73.4056L0.885908 56.1371C0.0755687 54.7254 0.584847 52.924 2.00683 52.1308L5.37626 50.2473L5.37732 50.2467C6.79855 49.454 8.62185 49.9521 9.43114 51.3557L9.4328 51.3584L10.202 52.7006L19.0004 47.6705C21.6543 46.1547 24.3661 45.1668 27.281 46.1016C30.1139 47.0087 34.7387 48.964 39.4587 49.8064C39.512 49.8158 39.5646 49.8289 39.6161 49.8453C42.0074 50.6099 43.4608 52.9973 42.8079 55.395C42.7156 55.7391 42.5878 56.073 42.4266 56.3914C42.9272 56.2479 43.4174 56.0402 43.8996 55.7628L55.8996 48.8612C60.2434 46.3623 63.1394 46.6346 64.7787 47.7207C66.191 48.6563 66.8456 50.2537 66.8034 51.822C66.7608 53.4065 65.9959 54.92 64.7376 55.6853L42.9629 68.924C40.6681 70.3226 38.1545 70.6509 35.5507 69.965L35.5493 69.9645L20.238 65.9124L18.3807 66.9715ZM17.2229 69.8022L7.3284 52.5373L7.32764 52.5361C7.17492 52.2736 6.83379 52.1782 6.5672 52.3269L3.19883 54.21L3.19777 54.2106C2.93209 54.3587 2.8394 54.6956 2.99076 54.9591L12.8881 72.229C13.0387 72.4922 13.3814 72.5846 13.6493 72.4367L17.0121 70.5545L17.0136 70.5536C17.2802 70.4049 17.373 70.0668 17.2229 69.8022ZM17.189 64.8922L19.4623 63.596C19.5999 63.5175 19.7518 63.4666 19.9093 63.4461C20.0668 63.4256 20.2269 63.436 20.3803 63.4767L36.1746 67.6566C38.1125 68.1671 39.9845 67.9318 41.6923 66.891L41.6933 66.8903L63.4689 53.6509C64.0282 53.3108 64.3172 52.6261 64.3757 51.926C64.466 50.8453 63.954 49.6511 62.6003 49.3711C61.3321 49.1086 59.5477 49.5274 57.1174 50.9255L45.1176 57.827C43.1899 58.9364 41.1694 59.2433 38.9674 58.8972L38.9632 58.8964L37.4756 58.6573C37.4756 58.6573 32.203 57.2909 29.4156 56.5512C28.7708 56.3801 28.3881 55.7242 28.5614 55.0875C28.7347 54.4508 29.3988 54.0729 30.0436 54.2439C32.7652 54.9661 35.2186 55.7583 37.8607 56.2976C39.1908 56.4428 40.1655 55.9003 40.4712 54.7752C40.7812 53.6375 40.0592 52.534 38.9401 52.1414C34.1301 51.2694 29.422 49.2987 26.5344 48.3741C24.2973 47.6566 22.2485 48.5752 20.2117 49.7386L11.3937 54.7801L17.189 64.8922ZM6.08061 54.3454C6.84437 54.2331 7.5537 54.754 7.66741 55.5082C7.77643 56.2625 7.24901 56.9673 6.48524 57.0751C5.72148 57.1874 5.01215 56.6621 4.89844 55.9078C4.78942 55.1535 5.31684 54.4531 6.08061 54.3454ZM65.9226 18.2561C66.4977 20.2788 66.8054 22.4115 66.8054 24.6148C66.8054 37.59 56.1376 48.1244 42.9981 48.1244C29.8585 48.1244 19.1907 37.59 19.1907 24.6148C19.1907 20.1225 20.4697 15.923 22.6867 12.3517L20.1115 9.59192C19.9557 9.42504 19.8513 9.21778 19.8105 8.99442C19.7697 8.77107 19.7942 8.54086 19.8812 8.33076C19.968 8.12064 20.1137 7.9393 20.3012 7.808C20.4886 7.6767 20.7101 7.60087 20.9396 7.58938L26.9114 7.28969C31.1495 3.44976 36.7988 1.10498 42.9981 1.10498C49.8283 1.10498 55.9908 3.95118 60.3337 8.5074L66.18 2.69181L66.1809 2.69092C68.3015 0.586091 71.7625 0.575639 73.894 2.66971C76.025 4.76319 76.0377 8.16904 73.9177 10.2843C71.8404 12.3545 68.9848 15.2031 65.9226 18.2561ZM58.6282 10.2041C54.7233 6.07646 49.1637 3.49411 42.9981 3.49411C38.5863 3.49411 34.4847 4.8162 31.0777 7.08064L31.8409 7.04227C32.0182 7.03342 32.1952 7.06321 32.3596 7.12951C32.5239 7.19581 32.6714 7.297 32.7917 7.4259C32.912 7.55481 33.0021 7.70827 33.0556 7.87541C33.1091 8.04254 33.1248 8.21926 33.1014 8.39302L33.0391 8.85517C35.928 7.07004 39.342 6.03794 42.9981 6.03794C48.4564 6.03794 53.3751 8.33807 56.8126 12.0102L58.6282 10.2041ZM55.1063 13.7075C52.1077 10.4638 47.7918 8.42707 42.9981 8.42707C39.0526 8.42707 35.4308 9.80649 32.6009 12.1033L31.66 19.0777C31.6297 19.3027 31.5351 19.5145 31.3873 19.6883C31.2395 19.8621 31.0446 19.9907 30.8254 20.0591C30.6063 20.1275 30.3719 20.1327 30.1498 20.0743C29.9277 20.0159 29.7271 19.8963 29.5714 19.7293L28.0091 18.0551C27.1068 20.0606 26.6055 22.2803 26.6055 24.6148C26.6055 33.5489 33.9507 40.8023 42.9981 40.8023C51.9947 40.8023 59.3082 33.63 59.39 24.7648C56.2496 27.8909 53.3092 30.8125 51.1768 32.9182C49.046 35.0224 45.5861 35.0224 43.4551 32.9182L34.0412 23.6133C31.9107 21.5096 31.9086 18.1048 34.0389 15.9903L34.0412 15.9881C36.172 13.8838 39.6319 13.8838 41.7629 15.9881L47.3085 21.4646L55.1063 13.7075ZM61.6866 22.4778C61.7681 23.1791 61.8101 23.8921 61.8101 24.6148C61.8101 34.8676 53.3807 43.1915 42.9981 43.1915C32.6154 43.1915 24.1861 34.8676 24.1861 24.6148C24.1861 21.266 25.0855 18.1231 26.6581 15.4086C26.6912 15.3488 26.7298 15.2913 26.774 15.2368C26.8477 15.1454 26.9347 15.0653 27.0322 14.999C27.1964 14.8868 27.3862 14.8168 27.5846 14.7951C27.7829 14.7729 27.9837 14.7996 28.1689 14.8729C28.3439 14.9421 28.5001 15.0506 28.6252 15.1898L29.6025 16.2371L30.5111 9.50128L23.6386 9.84621L25.0831 11.3941C25.2764 11.5933 25.3936 11.8526 25.4147 12.1277C25.4366 12.4025 25.3613 12.6763 25.2017 12.9025C22.9331 16.2551 21.6101 20.2836 21.6101 24.6148C21.6101 36.2715 31.1937 45.7353 42.9981 45.7353C54.8024 45.7353 64.386 36.2715 64.386 24.6148C64.386 23.1169 64.2278 21.6552 63.9271 20.2454C63.1825 20.9875 62.4331 21.7342 61.6866 22.4778ZM49.4662 31.2288C52.9396 27.7987 70.0095 10.7845 72.1983 8.60357C73.3787 7.42572 73.3743 5.5292 72.1877 4.36346C71.0018 3.19831 69.0761 3.20473 67.8962 4.3757L48.1703 23.9987C48.0581 24.1102 47.9247 24.1988 47.7777 24.2594C47.6308 24.3199 47.4732 24.3512 47.314 24.3515C47.1547 24.3518 46.997 24.3211 46.8499 24.2611C46.7027 24.2011 46.5689 24.113 46.4563 24.0018L40.0521 17.6775C38.8657 16.5061 36.9397 16.5056 35.753 17.6764C34.5668 18.855 34.5649 20.7518 35.7518 21.924L45.1659 31.2288C46.3526 32.4007 48.2795 32.4007 49.4662 31.2288Z"/>
</mask>
<path fill-rule="evenodd" clip-rule="evenodd" d="M18.3807 66.9715L19.3297 68.6276L19.3314 68.6306C20.1344 70.0411 19.6252 71.8409 18.205 72.633L14.8396 74.5166L14.836 74.5186C13.4077 75.3117 11.585 74.8088 10.7825 73.4056L0.885908 56.1371C0.0755687 54.7254 0.584847 52.924 2.00683 52.1308L5.37626 50.2473L5.37732 50.2467C6.79855 49.454 8.62185 49.9521 9.43114 51.3557L9.4328 51.3584L10.202 52.7006L19.0004 47.6705C21.6543 46.1547 24.3661 45.1668 27.281 46.1016C30.1139 47.0087 34.7387 48.964 39.4587 49.8064C39.512 49.8158 39.5646 49.8289 39.6161 49.8453C42.0074 50.6099 43.4608 52.9973 42.8079 55.395C42.7156 55.7391 42.5878 56.073 42.4266 56.3914C42.9272 56.2479 43.4174 56.0402 43.8996 55.7628L55.8996 48.8612C60.2434 46.3623 63.1394 46.6346 64.7787 47.7207C66.191 48.6563 66.8456 50.2537 66.8034 51.822C66.7608 53.4065 65.9959 54.92 64.7376 55.6853L42.9629 68.924C40.6681 70.3226 38.1545 70.6509 35.5507 69.965L35.5493 69.9645L20.238 65.9124L18.3807 66.9715ZM17.2229 69.8022L7.3284 52.5373L7.32764 52.5361C7.17492 52.2736 6.83379 52.1782 6.5672 52.3269L3.19883 54.21L3.19777 54.2106C2.93209 54.3587 2.8394 54.6956 2.99076 54.9591L12.8881 72.229C13.0387 72.4922 13.3814 72.5846 13.6493 72.4367L17.0121 70.5545L17.0136 70.5536C17.2802 70.4049 17.373 70.0668 17.2229 69.8022ZM17.189 64.8922L19.4623 63.596C19.5999 63.5175 19.7518 63.4666 19.9093 63.4461C20.0668 63.4256 20.2269 63.436 20.3803 63.4767L36.1746 67.6566C38.1125 68.1671 39.9845 67.9318 41.6923 66.891L41.6933 66.8903L63.4689 53.6509C64.0282 53.3108 64.3172 52.6261 64.3757 51.926C64.466 50.8453 63.954 49.6511 62.6003 49.3711C61.3321 49.1086 59.5477 49.5274 57.1174 50.9255L45.1176 57.827C43.1899 58.9364 41.1694 59.2433 38.9674 58.8972L38.9632 58.8964L37.4756 58.6573C37.4756 58.6573 32.203 57.2909 29.4156 56.5512C28.7708 56.3801 28.3881 55.7242 28.5614 55.0875C28.7347 54.4508 29.3988 54.0729 30.0436 54.2439C32.7652 54.9661 35.2186 55.7583 37.8607 56.2976C39.1908 56.4428 40.1655 55.9003 40.4712 54.7752C40.7812 53.6375 40.0592 52.534 38.9401 52.1414C34.1301 51.2694 29.422 49.2987 26.5344 48.3741C24.2973 47.6566 22.2485 48.5752 20.2117 49.7386L11.3937 54.7801L17.189 64.8922ZM6.08061 54.3454C6.84437 54.2331 7.5537 54.754 7.66741 55.5082C7.77643 56.2625 7.24901 56.9673 6.48524 57.0751C5.72148 57.1874 5.01215 56.6621 4.89844 55.9078C4.78942 55.1535 5.31684 54.4531 6.08061 54.3454ZM65.9226 18.2561C66.4977 20.2788 66.8054 22.4115 66.8054 24.6148C66.8054 37.59 56.1376 48.1244 42.9981 48.1244C29.8585 48.1244 19.1907 37.59 19.1907 24.6148C19.1907 20.1225 20.4697 15.923 22.6867 12.3517L20.1115 9.59192C19.9557 9.42504 19.8513 9.21778 19.8105 8.99442C19.7697 8.77107 19.7942 8.54086 19.8812 8.33076C19.968 8.12064 20.1137 7.9393 20.3012 7.808C20.4886 7.6767 20.7101 7.60087 20.9396 7.58938L26.9114 7.28969C31.1495 3.44976 36.7988 1.10498 42.9981 1.10498C49.8283 1.10498 55.9908 3.95118 60.3337 8.5074L66.18 2.69181L66.1809 2.69092C68.3015 0.586091 71.7625 0.575639 73.894 2.66971C76.025 4.76319 76.0377 8.16904 73.9177 10.2843C71.8404 12.3545 68.9848 15.2031 65.9226 18.2561ZM58.6282 10.2041C54.7233 6.07646 49.1637 3.49411 42.9981 3.49411C38.5863 3.49411 34.4847 4.8162 31.0777 7.08064L31.8409 7.04227C32.0182 7.03342 32.1952 7.06321 32.3596 7.12951C32.5239 7.19581 32.6714 7.297 32.7917 7.4259C32.912 7.55481 33.0021 7.70827 33.0556 7.87541C33.1091 8.04254 33.1248 8.21926 33.1014 8.39302L33.0391 8.85517C35.928 7.07004 39.342 6.03794 42.9981 6.03794C48.4564 6.03794 53.3751 8.33807 56.8126 12.0102L58.6282 10.2041ZM55.1063 13.7075C52.1077 10.4638 47.7918 8.42707 42.9981 8.42707C39.0526 8.42707 35.4308 9.80649 32.6009 12.1033L31.66 19.0777C31.6297 19.3027 31.5351 19.5145 31.3873 19.6883C31.2395 19.8621 31.0446 19.9907 30.8254 20.0591C30.6063 20.1275 30.3719 20.1327 30.1498 20.0743C29.9277 20.0159 29.7271 19.8963 29.5714 19.7293L28.0091 18.0551C27.1068 20.0606 26.6055 22.2803 26.6055 24.6148C26.6055 33.5489 33.9507 40.8023 42.9981 40.8023C51.9947 40.8023 59.3082 33.63 59.39 24.7648C56.2496 27.8909 53.3092 30.8125 51.1768 32.9182C49.046 35.0224 45.5861 35.0224 43.4551 32.9182L34.0412 23.6133C31.9107 21.5096 31.9086 18.1048 34.0389 15.9903L34.0412 15.9881C36.172 13.8838 39.6319 13.8838 41.7629 15.9881L47.3085 21.4646L55.1063 13.7075ZM61.6866 22.4778C61.7681 23.1791 61.8101 23.8921 61.8101 24.6148C61.8101 34.8676 53.3807 43.1915 42.9981 43.1915C32.6154 43.1915 24.1861 34.8676 24.1861 24.6148C24.1861 21.266 25.0855 18.1231 26.6581 15.4086C26.6912 15.3488 26.7298 15.2913 26.774 15.2368C26.8477 15.1454 26.9347 15.0653 27.0322 14.999C27.1964 14.8868 27.3862 14.8168 27.5846 14.7951C27.7829 14.7729 27.9837 14.7996 28.1689 14.8729C28.3439 14.9421 28.5001 15.0506 28.6252 15.1898L29.6025 16.2371L30.5111 9.50128L23.6386 9.84621L25.0831 11.3941C25.2764 11.5933 25.3936 11.8526 25.4147 12.1277C25.4366 12.4025 25.3613 12.6763 25.2017 12.9025C22.9331 16.2551 21.6101 20.2836 21.6101 24.6148C21.6101 36.2715 31.1937 45.7353 42.9981 45.7353C54.8024 45.7353 64.386 36.2715 64.386 24.6148C64.386 23.1169 64.2278 21.6552 63.9271 20.2454C63.1825 20.9875 62.4331 21.7342 61.6866 22.4778ZM49.4662 31.2288C52.9396 27.7987 70.0095 10.7845 72.1983 8.60357C73.3787 7.42572 73.3743 5.5292 72.1877 4.36346C71.0018 3.19831 69.0761 3.20473 67.8962 4.3757L48.1703 23.9987C48.0581 24.1102 47.9247 24.1988 47.7777 24.2594C47.6308 24.3199 47.4732 24.3512 47.314 24.3515C47.1547 24.3518 46.997 24.3211 46.8499 24.2611C46.7027 24.2011 46.5689 24.113 46.4563 24.0018L40.0521 17.6775C38.8657 16.5061 36.9397 16.5056 35.753 17.6764C34.5668 18.855 34.5649 20.7518 35.7518 21.924L45.1659 31.2288C46.3526 32.4007 48.2795 32.4007 49.4662 31.2288Z" fill="#EEF1F2"/>
<path fill-rule="evenodd" clip-rule="evenodd" d="M18.3807 66.9715L19.3297 68.6276L19.3314 68.6306C20.1344 70.0411 19.6252 71.8409 18.205 72.633L14.8396 74.5166L14.836 74.5186C13.4077 75.3117 11.585 74.8088 10.7825 73.4056L0.885908 56.1371C0.0755687 54.7254 0.584847 52.924 2.00683 52.1308L5.37626 50.2473L5.37732 50.2467C6.79855 49.454 8.62185 49.9521 9.43114 51.3557L9.4328 51.3584L10.202 52.7006L19.0004 47.6705C21.6543 46.1547 24.3661 45.1668 27.281 46.1016C30.1139 47.0087 34.7387 48.964 39.4587 49.8064C39.512 49.8158 39.5646 49.8289 39.6161 49.8453C42.0074 50.6099 43.4608 52.9973 42.8079 55.395C42.7156 55.7391 42.5878 56.073 42.4266 56.3914C42.9272 56.2479 43.4174 56.0402 43.8996 55.7628L55.8996 48.8612C60.2434 46.3623 63.1394 46.6346 64.7787 47.7207C66.191 48.6563 66.8456 50.2537 66.8034 51.822C66.7608 53.4065 65.9959 54.92 64.7376 55.6853L42.9629 68.924C40.6681 70.3226 38.1545 70.6509 35.5507 69.965L35.5493 69.9645L20.238 65.9124L18.3807 66.9715ZM17.2229 69.8022L7.3284 52.5373L7.32764 52.5361C7.17492 52.2736 6.83379 52.1782 6.5672 52.3269L3.19883 54.21L3.19777 54.2106C2.93209 54.3587 2.8394 54.6956 2.99076 54.9591L12.8881 72.229C13.0387 72.4922 13.3814 72.5846 13.6493 72.4367L17.0121 70.5545L17.0136 70.5536C17.2802 70.4049 17.373 70.0668 17.2229 69.8022ZM17.189 64.8922L19.4623 63.596C19.5999 63.5175 19.7518 63.4666 19.9093 63.4461C20.0668 63.4256 20.2269 63.436 20.3803 63.4767L36.1746 67.6566C38.1125 68.1671 39.9845 67.9318 41.6923 66.891L41.6933 66.8903L63.4689 53.6509C64.0282 53.3108 64.3172 52.6261 64.3757 51.926C64.466 50.8453 63.954 49.6511 62.6003 49.3711C61.3321 49.1086 59.5477 49.5274 57.1174 50.9255L45.1176 57.827C43.1899 58.9364 41.1694 59.2433 38.9674 58.8972L38.9632 58.8964L37.4756 58.6573C37.4756 58.6573 32.203 57.2909 29.4156 56.5512C28.7708 56.3801 28.3881 55.7242 28.5614 55.0875C28.7347 54.4508 29.3988 54.0729 30.0436 54.2439C32.7652 54.9661 35.2186 55.7583 37.8607 56.2976C39.1908 56.4428 40.1655 55.9003 40.4712 54.7752C40.7812 53.6375 40.0592 52.534 38.9401 52.1414C34.1301 51.2694 29.422 49.2987 26.5344 48.3741C24.2973 47.6566 22.2485 48.5752 20.2117 49.7386L11.3937 54.7801L17.189 64.8922ZM6.08061 54.3454C6.84437 54.2331 7.5537 54.754 7.66741 55.5082C7.77643 56.2625 7.24901 56.9673 6.48524 57.0751C5.72148 57.1874 5.01215 56.6621 4.89844 55.9078C4.78942 55.1535 5.31684 54.4531 6.08061 54.3454ZM65.9226 18.2561C66.4977 20.2788 66.8054 22.4115 66.8054 24.6148C66.8054 37.59 56.1376 48.1244 42.9981 48.1244C29.8585 48.1244 19.1907 37.59 19.1907 24.6148C19.1907 20.1225 20.4697 15.923 22.6867 12.3517L20.1115 9.59192C19.9557 9.42504 19.8513 9.21778 19.8105 8.99442C19.7697 8.77107 19.7942 8.54086 19.8812 8.33076C19.968 8.12064 20.1137 7.9393 20.3012 7.808C20.4886 7.6767 20.7101 7.60087 20.9396 7.58938L26.9114 7.28969C31.1495 3.44976 36.7988 1.10498 42.9981 1.10498C49.8283 1.10498 55.9908 3.95118 60.3337 8.5074L66.18 2.69181L66.1809 2.69092C68.3015 0.586091 71.7625 0.575639 73.894 2.66971C76.025 4.76319 76.0377 8.16904 73.9177 10.2843C71.8404 12.3545 68.9848 15.2031 65.9226 18.2561ZM58.6282 10.2041C54.7233 6.07646 49.1637 3.49411 42.9981 3.49411C38.5863 3.49411 34.4847 4.8162 31.0777 7.08064L31.8409 7.04227C32.0182 7.03342 32.1952 7.06321 32.3596 7.12951C32.5239 7.19581 32.6714 7.297 32.7917 7.4259C32.912 7.55481 33.0021 7.70827 33.0556 7.87541C33.1091 8.04254 33.1248 8.21926 33.1014 8.39302L33.0391 8.85517C35.928 7.07004 39.342 6.03794 42.9981 6.03794C48.4564 6.03794 53.3751 8.33807 56.8126 12.0102L58.6282 10.2041ZM55.1063 13.7075C52.1077 10.4638 47.7918 8.42707 42.9981 8.42707C39.0526 8.42707 35.4308 9.80649 32.6009 12.1033L31.66 19.0777C31.6297 19.3027 31.5351 19.5145 31.3873 19.6883C31.2395 19.8621 31.0446 19.9907 30.8254 20.0591C30.6063 20.1275 30.3719 20.1327 30.1498 20.0743C29.9277 20.0159 29.7271 19.8963 29.5714 19.7293L28.0091 18.0551C27.1068 20.0606 26.6055 22.2803 26.6055 24.6148C26.6055 33.5489 33.9507 40.8023 42.9981 40.8023C51.9947 40.8023 59.3082 33.63 59.39 24.7648C56.2496 27.8909 53.3092 30.8125 51.1768 32.9182C49.046 35.0224 45.5861 35.0224 43.4551 32.9182L34.0412 23.6133C31.9107 21.5096 31.9086 18.1048 34.0389 15.9903L34.0412 15.9881C36.172 13.8838 39.6319 13.8838 41.7629 15.9881L47.3085 21.4646L55.1063 13.7075ZM61.6866 22.4778C61.7681 23.1791 61.8101 23.8921 61.8101 24.6148C61.8101 34.8676 53.3807 43.1915 42.9981 43.1915C32.6154 43.1915 24.1861 34.8676 24.1861 24.6148C24.1861 21.266 25.0855 18.1231 26.6581 15.4086C26.6912 15.3488 26.7298 15.2913 26.774 15.2368C26.8477 15.1454 26.9347 15.0653 27.0322 14.999C27.1964 14.8868 27.3862 14.8168 27.5846 14.7951C27.7829 14.7729 27.9837 14.7996 28.1689 14.8729C28.3439 14.9421 28.5001 15.0506 28.6252 15.1898L29.6025 16.2371L30.5111 9.50128L23.6386 9.84621L25.0831 11.3941C25.2764 11.5933 25.3936 11.8526 25.4147 12.1277C25.4366 12.4025 25.3613 12.6763 25.2017 12.9025C22.9331 16.2551 21.6101 20.2836 21.6101 24.6148C21.6101 36.2715 31.1937 45.7353 42.9981 45.7353C54.8024 45.7353 64.386 36.2715 64.386 24.6148C64.386 23.1169 64.2278 21.6552 63.9271 20.2454C63.1825 20.9875 62.4331 21.7342 61.6866 22.4778ZM49.4662 31.2288C52.9396 27.7987 70.0095 10.7845 72.1983 8.60357C73.3787 7.42572 73.3743 5.5292 72.1877 4.36346C71.0018 3.19831 69.0761 3.20473 67.8962 4.3757L48.1703 23.9987C48.0581 24.1102 47.9247 24.1988 47.7777 24.2594C47.6308 24.3199 47.4732 24.3512 47.314 24.3515C47.1547 24.3518 46.997 24.3211 46.8499 24.2611C46.7027 24.2011 46.5689 24.113 46.4563 24.0018L40.0521 17.6775C38.8657 16.5061 36.9397 16.5056 35.753 17.6764C34.5668 18.855 34.5649 20.7518 35.7518 21.924L45.1659 31.2288C46.3526 32.4007 48.2795 32.4007 49.4662 31.2288Z" stroke="#EEF1F2" stroke-width="0.3" mask="url(#path-1-outside-1_252_3677)"/>
</svg>
