<svg width="72" height="80" viewBox="0 0 72 80" fill="none" xmlns="http://www.w3.org/2000/svg">
<path fill-rule="evenodd" clip-rule="evenodd" d="M19.5514 71.6792L20.5133 73.3791L20.5152 73.3823C21.3561 74.8779 20.8228 76.7867 19.3356 77.6267L15.8558 79.599L15.852 79.6011C14.3561 80.442 12.4476 79.9088 11.6071 78.4207L1.37454 60.34C0.525981 58.8429 1.05937 56.9324 2.54859 56.0914L6.03217 54.1192C7.52058 53.2785 9.43124 53.8063 10.2787 55.2947L10.2804 55.2976L11.0561 56.6682L20.1185 51.4214C22.8725 49.8286 25.6874 48.7931 28.7123 49.7752C31.6402 50.7248 36.4199 52.7716 41.2982 53.653C41.355 53.6633 41.4113 53.6774 41.4663 53.6951C43.9587 54.5022 45.4729 57.0227 44.7923 59.5537C44.7038 59.8871 44.5844 60.2115 44.4357 60.5228C44.9202 60.3747 45.3954 60.1668 45.863 59.8944L58.2704 52.6682C62.7817 50.0399 65.7903 50.3332 67.4927 51.4754C68.9647 52.4629 69.6477 54.1484 69.6037 55.8035C69.5593 57.4763 68.7606 59.0733 67.4488 59.8812L44.9352 73.7426C42.5529 75.2128 39.9435 75.5581 37.2403 74.837L21.4236 70.5981L19.5514 71.6792ZM18.2659 74.6475L8.0359 56.5713C7.88913 56.314 7.55993 56.2203 7.30251 56.3655L3.81989 58.3371C3.56424 58.4816 3.47408 58.8107 3.61973 59.0676L13.8531 77.1497C13.9982 77.4065 14.3286 77.4965 14.5866 77.352L18.0631 75.3815C18.3201 75.2365 18.4107 74.9055 18.2659 74.6475ZM18.2802 69.4332L20.5962 68.0959C20.743 68.0112 20.905 67.9562 21.073 67.9341C21.241 67.9119 21.4117 67.9231 21.5754 67.9671L37.9058 72.3436C39.8985 72.8752 41.8236 72.6303 43.5797 71.5465L66.0958 57.6837C66.6638 57.3339 66.9551 56.6282 67.0145 55.9081C67.1063 54.7948 66.5874 53.5635 65.2104 53.275C63.9054 53.0016 62.0701 53.4413 59.5692 54.898L47.1623 62.1241C45.1607 63.2904 43.0631 63.6133 40.7769 63.2494L39.1788 62.9881C36.3777 62.4131 33.7797 61.567 30.897 60.7923C30.2092 60.6075 29.8008 59.8991 29.9857 59.2113C30.1705 58.5236 30.8789 58.1152 31.5667 58.3C34.3793 59.056 36.9148 59.8849 39.6451 60.4494C40.9969 60.5983 41.989 60.0425 42.3 58.8842C42.6147 57.714 41.8806 56.5805 40.7447 56.1753C35.7704 55.2616 30.902 53.1982 27.916 52.2299C25.614 51.4824 23.5066 52.443 21.4106 53.6553L12.3272 58.9142L18.2802 69.4332ZM6.78009 58.4445C7.56977 58.327 8.30317 58.8723 8.42059 59.662C8.53349 60.4518 7.98816 61.1899 7.19848 61.3026C6.40863 61.4202 5.67539 60.8702 5.55781 60.0804C5.44491 59.2907 5.99024 58.5573 6.78009 58.4445ZM38.1317 45.9213V47.692C38.1317 48.0342 37.9958 48.3624 37.7538 48.6044C37.5118 48.8464 37.1836 48.9823 36.8414 48.9823H21.1864C20.5601 48.9823 19.893 48.5883 19.6473 47.7946C19.477 47.2439 19.5864 46.6099 19.8872 46.1779L22.4811 42.4534L19.8872 38.7287C19.5864 38.2969 19.477 37.6628 19.6473 37.1122C19.893 36.3185 20.5601 35.9243 21.1864 35.9243H32.7017V34.1536C32.7017 33.8114 32.8376 33.4832 33.0796 33.2412C33.3216 32.9992 33.6498 32.8633 33.992 32.8633H38.438C37.3687 32.3341 36.6459 31.2602 36.6459 30.0536V28.2268C36.3067 22.9456 34.6812 20.9601 33.4451 18.9213C32.4601 17.2971 31.6802 15.6457 31.6802 12.7818C31.6802 5.74845 37.753 0 45.2981 0C52.8432 0 58.9162 5.74845 58.9162 12.7818C58.9162 15.6457 58.1362 17.2971 57.1513 18.9213C55.9121 20.9649 54.2821 22.9549 53.948 28.264L53.9463 30.0536C53.9463 31.2607 53.2227 32.3341 52.155 32.8633H56.6044C56.9466 32.8633 57.2748 32.9992 57.5168 33.2412C57.7588 33.4832 57.8947 33.8114 57.8947 34.1536V35.9243H69.4098C70.0361 35.9243 70.7034 36.3185 70.9489 37.1122C71.1194 37.6628 71.0098 38.2969 70.709 38.7287L68.1151 42.4534L70.709 46.1779C71.0098 46.6099 71.1194 47.2439 70.9489 47.7946C70.7034 48.5883 70.0361 48.9823 69.4098 48.9823H53.7548C53.4126 48.9823 53.0844 48.8464 52.8424 48.6044C52.6004 48.3624 52.4645 48.0342 52.4645 47.692V45.9213H38.1317ZM32.7017 38.505H22.8762L24.8911 41.3982C25.3017 41.9879 25.3017 42.9189 24.8911 43.5086L22.8762 46.4017H35.5511V45.9213H33.992C33.6498 45.9213 33.3216 45.7854 33.0796 45.5434C32.8376 45.3014 32.7017 44.9732 32.7017 44.631V38.505ZM39.1414 35.444H35.2823V43.3407H55.314V35.444H51.4537C51.0882 36.0075 50.5412 36.4583 49.8893 36.7143V37.5246C49.8893 39.2319 48.431 40.6827 46.5994 40.6827H43.9968C42.1661 40.6827 40.7027 39.2311 40.7027 37.5246V36.7138C40.0509 36.4577 39.5056 36.007 39.1414 35.444ZM57.8947 38.505V44.631C57.8947 44.9732 57.7588 45.3014 57.5168 45.5434C57.2748 45.7854 56.9466 45.9213 56.6044 45.9213H55.0452V46.4017H67.72L65.7051 43.5086C65.2946 42.9189 65.2946 41.9879 65.7051 41.3982L67.72 38.505H57.8947ZM39.2266 29.4763V30.0536C39.2266 30.3981 39.5703 30.631 39.94 30.631H50.6564C51.0237 30.631 51.3656 30.3973 51.3656 30.0529L51.3661 29.4763H39.2266ZM49.3661 33.2117H41.2303V33.7891C41.2303 33.8215 41.2337 33.8531 41.2402 33.8838C41.3032 34.1785 41.6093 34.3665 41.9435 34.3665H48.6527C48.9859 34.3665 49.2928 34.1778 49.3562 33.8826C49.3628 33.8519 49.3661 33.8205 49.3661 33.7891V33.2117ZM47.3086 36.9472H43.2834V37.5246C43.2834 37.8678 43.6286 38.102 43.9968 38.102H46.5994C46.9668 38.102 47.3086 37.867 47.3086 37.5246V36.9472ZM48.716 26.8956H51.4724C51.9108 22.6814 53.1259 20.5067 54.2687 18.6689C55.3173 16.9823 56.3355 15.6474 56.3355 12.7818C56.3355 7.12202 51.3698 2.58067 45.2981 2.58067C39.2266 2.58067 34.2609 7.12202 34.2609 12.7818C34.2609 15.6474 35.279 16.9823 36.3277 18.6689C37.4703 20.5067 38.6854 22.6814 39.1238 26.8956H41.8802V16.8257H40.3035C37.9959 16.8257 36.1503 15.0176 36.1503 12.8664C36.1503 10.7103 37.9964 8.90349 40.3035 8.90349C42.616 8.90349 44.4608 10.7108 44.4608 12.8664V14.245H46.1354V12.8664C46.1354 10.7108 47.9802 8.90349 50.2928 8.90349C52.5998 8.90349 54.4461 10.7103 54.4461 12.8664C54.4461 15.0176 52.6003 16.8257 50.2928 16.8257H48.716V26.8956ZM44.4608 26.8956H46.1354V16.8257H44.4608V26.8956ZM41.8802 14.245V12.8664C41.8802 12.0795 41.1477 11.4842 40.3035 11.4842C39.4621 11.4842 38.7309 12.0801 38.7309 12.8664C38.7309 13.6505 39.4626 14.245 40.3035 14.245H41.8802ZM48.716 14.245H50.2928C51.1338 14.245 51.8654 13.6505 51.8654 12.8664C51.8654 12.0801 51.1343 11.4842 50.2928 11.4842C49.4485 11.4842 48.716 12.0795 48.716 12.8664V14.245Z" fill="#EEF1F2"/>
</svg>
