<svg width="72" height="80" viewBox="0 0 72 80" fill="none" xmlns="http://www.w3.org/2000/svg">
<path d="M70.9998 51.8511C70.3054 50.6917 67.4605 47.2463 60.0073 51.5869L47.0634 59.1261C46.5298 59.4368 45.9887 59.671 45.4293 59.8305C45.6168 59.4727 45.7634 59.0951 45.8666 58.7047C46.5477 56.162 45.0388 53.5084 42.4315 52.6631C42.3763 52.6451 42.3198 52.6309 42.2626 52.6206C38.5543 51.9517 34.8888 50.6265 31.9435 49.5618C30.9174 49.1909 29.9482 48.8405 29.1228 48.573C25.7561 47.4807 22.7254 48.8251 20.205 50.2844L10.6988 55.7883L9.86138 54.3086C9.44185 53.5674 8.757 53.0334 7.93278 52.805C7.10905 52.5766 6.24661 52.6819 5.50547 53.1013L1.87393 55.1567C0.340181 56.0247 -0.201284 57.9787 0.66664 59.5124L11.3438 78.3784C11.7634 79.1195 12.4482 79.6535 13.2724 79.8819C13.5574 79.961 13.847 80 14.1344 80C14.6783 80 15.2149 79.8602 15.6997 79.5858L19.3316 77.5303C20.8654 76.6622 21.407 74.7083 20.5389 73.1745L19.5073 71.3517L21.5299 70.1841L38.0516 74.611C38.9789 74.8596 39.9011 74.9831 40.8086 74.9829C42.6438 74.9829 44.4169 74.4776 46.0376 73.4798L69.5277 59.0156C71.7311 57.6588 72.4329 54.2439 70.9998 51.8511ZM18.0603 75.2842L14.4284 77.3398C14.2379 77.4477 14.0542 77.4206 13.9615 77.3951C13.8689 77.3695 13.6974 77.2978 13.5897 77.1074L2.9125 58.2414C2.74814 57.9511 2.85476 57.5669 3.14493 57.4027L6.77663 55.3473C6.8672 55.2958 6.96968 55.2688 7.07389 55.2691C7.14341 55.2691 7.20244 55.2807 7.24357 55.2921C7.33616 55.3178 7.50745 55.3892 7.61536 55.5797L18.2927 74.4455C18.4571 74.736 18.3505 75.12 18.0603 75.2842ZM40.1287 62.2586L41.7386 62.5204C44.1796 62.9107 46.3461 62.5299 48.362 61.3562L61.306 53.8169C64.9561 51.6909 67.7523 51.4516 68.7857 53.1769C69.4933 54.3584 69.1847 56.1959 68.1741 56.818L44.6842 71.2822C42.8559 72.4077 40.8492 72.6892 38.7193 72.1182L21.6812 67.5529C21.3506 67.4646 20.9986 67.5109 20.7021 67.6818L18.2359 69.1055L11.97 58.0341L21.498 52.5176C23.6283 51.2841 25.93 50.2496 28.3265 51.0274C29.1112 51.2819 30.017 51.6093 31.0659 51.9885C34.0781 53.0776 37.8208 54.4307 41.7101 55.143C42.9852 55.5938 43.6983 56.8244 43.3735 58.0364C42.9457 59.6327 41.6065 59.8305 40.5389 59.7087C38.6411 59.3179 36.8348 58.8026 34.9236 58.2567C34.0141 57.9971 33.0736 57.7283 32.1063 57.4691C31.9426 57.4253 31.7719 57.4141 31.6039 57.4362C31.4359 57.4583 31.2739 57.5133 31.1271 57.5981C30.9804 57.6828 30.8517 57.7956 30.7486 57.93C30.6454 58.0645 30.5698 58.2179 30.5259 58.3816C30.4821 58.5453 30.4709 58.716 30.493 58.884C30.5151 59.052 30.5701 59.214 30.6548 59.3607C30.7396 59.5075 30.8524 59.6361 30.9868 59.7393C31.1212 59.8424 31.2747 59.9181 31.4384 59.9619C32.3851 60.2157 33.3153 60.4813 34.2149 60.7381C36.1935 61.3031 38.0622 61.8368 40.0771 62.2488M7.76068 58.8676C7.78533 59.036 7.77654 59.2077 7.73482 59.3728C7.6931 59.5379 7.61927 59.6932 7.51754 59.8297C7.4158 59.9663 7.28817 60.0815 7.14192 60.1687C6.99567 60.2559 6.83367 60.3135 6.66517 60.3381C6.49668 60.3627 6.32499 60.3539 6.15989 60.3122C5.9948 60.2705 5.83954 60.1967 5.70298 60.0949C5.56643 59.9932 5.45125 59.8656 5.36403 59.7193C5.27681 59.5731 5.21926 59.4111 5.19465 59.2426C5.15076 58.905 5.24133 58.5637 5.44684 58.2924C5.65234 58.021 5.95629 57.8414 6.2931 57.7922C6.62991 57.7429 6.97257 57.8281 7.24713 58.0293C7.5217 58.2305 7.70615 58.5316 7.76068 58.8676ZM26.7931 20.1536C27.39 21.3178 27.6897 21.902 27.7754 22.3878C27.861 22.8735 27.7792 23.5249 27.6166 24.823C27.5757 25.1496 27.53 25.5134 27.4812 25.9221C27.2124 28.17 28.4302 30.2793 30.5114 31.1708C30.8898 31.3329 31.2275 31.4751 31.5308 31.603L31.6913 31.6708L26.8953 41.9717C26.7958 42.1854 26.7568 42.4224 26.7825 42.6568C26.8082 42.8912 26.8976 43.1141 27.0411 43.3013C27.1845 43.4884 27.3765 43.6327 27.5962 43.7184C27.8159 43.8041 28.0549 43.8279 28.2871 43.7873L33.5587 42.8664L36.2473 47.4933C36.3658 47.6972 36.5379 47.8647 36.7449 47.9777C36.9519 48.0906 37.186 48.1447 37.4215 48.134C37.6571 48.1234 37.8853 48.0483 38.0812 47.917C38.2771 47.7858 38.4334 47.6033 38.5329 47.3895L43.2938 37.1636L43.1998 37.1199C44.0149 36.8733 44.4959 36.7493 44.8903 36.7493C45.3835 36.7493 46.011 36.9428 47.261 37.3286L47.6752 37.4562L51.1111 45.4332C51.2043 45.6498 51.3552 45.8367 51.5472 45.9736C51.7393 46.1105 51.9652 46.1922 52.2004 46.2097C52.4355 46.2272 52.671 46.1799 52.8812 46.0729C53.0914 45.966 53.2683 45.8035 53.3926 45.603L56.2143 41.0562L61.4567 42.1299C61.6877 42.1772 61.9273 42.1603 62.1494 42.0811C62.3715 42.0018 62.5676 41.8632 62.7165 41.6802C62.8653 41.4973 62.9612 41.2771 62.9937 41.0435C63.0262 40.8099 62.994 40.5719 62.9007 40.3553L58.9955 31.288C59.0868 31.2492 59.1781 31.2102 59.2693 31.1711C61.3505 30.2798 62.5683 28.1704 62.2996 25.9224C62.2507 25.5137 62.2052 25.15 62.1643 24.8235C62.0013 23.5254 61.9197 22.8739 62.0054 22.3881C62.091 21.9025 62.3907 21.3181 62.9875 20.154C63.1377 19.8611 63.3049 19.535 63.4907 19.1677C64.5122 17.1472 64.0891 14.7486 62.4385 13.1994C62.1692 12.9469 61.8992 12.6953 61.6284 12.4445C60.6694 11.5546 60.1879 11.1082 59.9413 10.6809C59.6947 10.2538 59.5485 9.61362 59.2577 8.33827C59.1845 8.01729 59.1031 7.65986 59.009 7.25905C58.4927 5.05464 56.6269 3.48912 54.3663 3.36347C53.9553 3.34056 53.5894 3.3225 53.2607 3.30605C51.954 3.24105 51.2982 3.2083 50.8346 3.03959C50.3711 2.87088 49.8477 2.47441 48.8051 1.6844C48.5426 1.48568 48.2505 1.26439 47.921 1.01761C46.1085 -0.339202 43.673 -0.339202 41.8605 1.01761C41.531 1.26439 41.2389 1.48568 40.9765 1.6844C39.9337 2.47441 39.4105 2.87088 38.9469 3.03959C38.4834 3.2083 37.8277 3.24105 36.5209 3.30605C36.1922 3.3225 35.826 3.34056 35.4152 3.36347C33.1547 3.48928 31.2888 5.0548 30.7725 7.25905C30.6787 7.65986 30.5972 8.01713 30.5238 8.33811C30.2328 9.61362 30.0869 10.2536 29.8401 10.6809C29.5935 11.108 29.112 11.5546 28.1531 12.4443C27.8823 12.6952 27.6123 12.9468 27.3429 13.1992C25.6921 14.7486 25.2692 17.147 26.2905 19.1676C26.4569 19.4968 26.6244 19.8255 26.7931 20.1536ZM37.2367 44.059L35.3383 40.792C35.2057 40.5639 35.0064 40.3819 34.7672 40.2705C34.528 40.1592 34.2604 40.1238 34.0005 40.1692L30.2783 40.8195L33.9576 32.9169C34.2621 33.2561 34.602 33.7819 35.1628 34.6505C35.3414 34.9271 35.5402 35.235 35.7656 35.5797C36.7228 37.0435 38.3063 37.8735 39.9765 37.8735C40.0237 37.8735 40.0715 37.8696 40.1189 37.8683L37.2367 44.059ZM55.8509 38.3472C55.5924 38.2943 55.3239 38.3219 55.0816 38.4263C54.8393 38.5306 54.6348 38.7068 54.4957 38.9309L52.5034 42.1415L50.634 37.8012C51.9871 37.5741 53.2182 36.798 54.0149 35.5797C54.2167 35.2707 54.4176 34.9611 54.6175 34.6508C55.3272 33.5518 55.6833 33.0002 56.0612 32.683C56.2086 32.5593 56.3915 32.4448 56.6306 32.3213L59.5524 39.1053L55.8509 38.3472ZM29.1085 15.0807C29.4046 14.8028 29.6696 14.5568 29.9078 14.336C32.1982 12.2113 32.3445 11.9577 33.0395 8.91183C33.1118 8.59521 33.1921 8.24278 33.2849 7.84729C33.5416 6.75113 34.4341 6.0024 35.5581 5.93982C35.9636 5.91724 36.3246 5.89934 36.649 5.88305C39.7694 5.72772 40.0444 5.62756 42.5346 3.7409C42.7933 3.54476 43.0817 3.32637 43.4069 3.08298C43.8575 2.74555 44.374 2.577 44.8906 2.577C45.4071 2.577 45.9235 2.74555 46.3744 3.08298C46.6658 3.30126 46.9565 3.52052 47.2465 3.74074C49.7367 5.62739 50.0117 5.7274 53.1321 5.88288C53.4565 5.89901 53.8174 5.91692 54.2229 5.93966C55.3472 6.00224 56.2394 6.75097 56.4962 7.84713C56.5888 8.24262 56.6693 8.59521 56.7415 8.91183C57.4364 11.9575 57.5827 12.2111 59.8732 14.3358C60.1404 14.5833 60.4068 14.8315 60.6724 15.0805C61.4934 15.851 61.6957 16.9982 61.1876 18.003C61.0044 18.3654 60.8394 18.6872 60.6913 18.9761C59.2658 21.7562 59.215 22.0444 59.6037 25.1443C59.644 25.4664 59.689 25.8251 59.7373 26.2284C59.871 27.3463 59.2885 28.355 58.2535 28.7983C57.8803 28.9581 57.5471 29.0986 57.2477 29.2247C54.3687 30.438 54.1445 30.6261 52.4497 33.2506C52.2524 33.5567 52.0542 33.8621 51.8551 34.167C51.239 35.1091 50.1446 35.5075 49.0665 35.182C48.6778 35.0644 48.3323 34.9579 48.0221 34.8621C45.0371 33.9411 44.7443 33.941 41.7586 34.8621C41.4484 34.9579 41.1029 35.0644 40.7142 35.182C39.6368 35.5076 38.5418 35.1092 37.9256 34.167C37.7265 33.8621 37.5282 33.5566 37.3309 33.2505C35.6362 30.6261 35.412 30.4378 32.5329 29.2247C32.2337 29.0986 31.9006 28.9583 31.5272 28.7983C30.4922 28.355 29.9098 27.3463 30.0435 26.2282C30.0917 25.825 30.1367 25.4661 30.1772 25.144C30.5659 22.0441 30.5151 21.756 29.0894 18.9758C28.9414 18.6869 28.7764 18.3653 28.5931 18.0029C28.0852 16.9983 28.2875 15.8512 29.1085 15.0807ZM44.8901 30.7675C51.4142 30.7675 56.7219 25.4598 56.7219 18.9358C56.7219 12.4118 51.4142 7.1042 44.8901 7.1042C38.3661 7.1042 33.0586 12.4119 33.0586 18.9358C33.0586 25.4598 38.3663 30.7675 44.8901 30.7675ZM44.8901 9.68475C49.9911 9.68475 54.1412 13.8347 54.1412 18.9356C54.1412 24.0366 49.9912 28.1866 44.8901 28.1866C39.789 28.1866 35.6393 24.0367 35.6393 18.9356C35.6393 13.8345 39.7892 9.68475 44.8901 9.68475ZM41.6054 23.5082L38.2846 20.1873C38.1648 20.0675 38.0698 19.9252 38.0049 19.7687C37.9401 19.6121 37.9067 19.4443 37.9067 19.2749C37.9067 19.1055 37.9401 18.9377 38.0049 18.7811C38.0698 18.6246 38.1648 18.4823 38.2846 18.3625C38.4045 18.2427 38.5467 18.1477 38.7032 18.0828C38.8598 18.018 39.0276 17.9846 39.197 17.9846C39.3665 17.9846 39.5342 18.018 39.6908 18.0828C39.8473 18.1477 39.9896 18.2427 40.1094 18.3625L42.5609 20.8142L49.7162 14.3205C49.9697 14.0905 50.3041 13.9706 50.6459 13.9872C50.9878 14.0038 51.309 14.1555 51.539 14.4089C51.769 14.6623 51.8889 14.9968 51.8723 15.3386C51.8557 15.6804 51.704 16.0017 51.4506 16.2317L43.3849 23.5514C43.1478 23.7671 42.8386 23.8865 42.518 23.8862C42.3485 23.8864 42.1806 23.853 42.024 23.7882C41.8674 23.7233 41.7251 23.6281 41.6054 23.5082Z" fill="#EEF1F2"/>
</svg>
