<svg width="66" height="80" viewBox="0 0 66 80" fill="none" xmlns="http://www.w3.org/2000/svg">
<path fill-rule="evenodd" clip-rule="evenodd" d="M18.1193 71.9815L18.9837 73.5091C18.9844 73.5102 18.985 73.5113 18.9855 73.5125C19.819 74.9947 19.2903 76.8861 17.8165 77.7185L14.4927 79.6024C14.4914 79.6033 14.49 79.604 14.4885 79.6047C13.0063 80.4381 11.1149 79.9095 10.282 78.435L0.507612 61.1638C-0.333286 59.6801 0.195278 57.7867 1.67109 56.9532L4.9989 55.0692L5.00008 55.0686C6.47505 54.2355 8.3672 54.759 9.20709 56.234L9.20894 56.237L9.89425 57.4482L18.4536 52.4927C21.1129 50.9547 23.8323 49.9624 26.753 50.9107C29.5466 51.8166 34.1066 53.7703 38.7608 54.6113C38.8201 54.6219 38.8786 54.6367 38.9359 54.6552C41.3738 55.4445 42.8521 57.9112 42.1864 60.3866C42.1218 60.6289 42.0409 60.8665 41.9442 61.0979C42.3266 60.9628 42.6953 60.7916 43.0453 60.5867L54.8974 53.6839C59.2635 51.1404 62.1775 51.4428 63.8252 52.5481C65.264 53.5135 65.934 55.1602 65.891 56.7782C65.8475 58.4144 65.0629 59.9749 63.7796 60.7652L42.2738 74.0061C39.9712 75.4273 37.449 75.7615 34.8361 75.0644L34.8346 75.064L19.772 71.0272L18.1193 71.9815ZM11.2184 59.7879L16.7952 69.642L18.9099 68.4209C19.0628 68.3326 19.2316 68.2752 19.4066 68.2522C19.5817 68.2291 19.7596 68.2408 19.9301 68.2865L35.5293 72.4671C37.4023 72.9668 39.2114 72.7373 40.862 71.7186L40.8632 71.7178L62.37 58.4763C62.9265 58.1337 63.1849 57.4163 63.2038 56.7068C63.2591 54.6221 61.1633 53.1446 56.2504 56.0067L44.3988 62.9092C42.4638 64.0368 40.4359 64.3498 38.2257 63.998L38.221 63.9971L36.7519 63.758L36.7502 63.7579C36.732 63.7548 36.7139 63.7515 36.6958 63.7478L36.694 63.7475C34.0162 63.1977 31.5325 62.3891 28.7766 61.6483C28.0602 61.4559 27.6348 60.7179 27.8273 60.0015C28.0199 59.2851 28.7578 58.8598 29.4742 59.0524C32.157 59.7733 34.5753 60.5641 37.1795 61.1028C38.4045 61.2358 39.3082 60.7397 39.5903 59.6891L39.5905 59.6885C39.8751 58.6302 39.2088 57.6083 38.1832 57.2383C33.4293 56.3637 28.7774 54.3931 25.9234 53.4678L25.9229 53.4675C23.755 52.7635 21.7734 53.6782 19.7996 54.8197L11.2184 59.7879ZM6.87089 57.5636L6.86954 57.5613C6.75899 57.3707 6.51386 57.3008 6.32216 57.4092L2.99536 59.2925L2.99418 59.2931C2.80332 59.401 2.73763 59.6463 2.84633 59.8382L2.84667 59.839L12.6216 77.1109L12.6221 77.1119C12.7306 77.304 12.9774 77.37 13.1705 77.262L16.4911 75.3799L16.4927 75.3789C16.6849 75.2704 16.7508 75.0234 16.6426 74.8303L6.87089 57.5636ZM5.76806 59.298C6.52243 59.1858 7.22304 59.7066 7.33527 60.461C7.44313 61.2154 6.92213 61.9203 6.16776 62.0282C5.41338 62.1404 4.71278 61.615 4.60054 60.8607C4.49285 60.1063 5.01368 59.4057 5.76806 59.298ZM29.661 24.4035L27.1885 21.9309C23.3164 23.1622 18.9111 22.2355 15.8541 19.1785C12.7499 16.0743 11.8467 11.6269 13.1223 7.73254C13.1941 7.51346 13.3209 7.31644 13.4906 7.16027C13.6602 7.0041 13.867 6.89398 14.0913 6.84043C14.3155 6.78687 14.5498 6.79166 14.7717 6.85433C14.9936 6.917 15.1957 7.03546 15.3588 7.19843L21.8295 13.6691L25.3024 12.7332L26.2384 9.26027L19.7676 2.78947C19.6044 2.62625 19.4859 2.4239 19.4232 2.20177C19.3605 1.97963 19.3559 1.74514 19.4097 1.5207C19.4635 1.29626 19.574 1.08937 19.7306 0.919816C19.8872 0.750258 20.0846 0.623695 20.3041 0.552225C24.1868 -0.711894 28.6339 0.191 31.738 3.29485C34.7943 6.35115 35.7207 10.7557 34.4992 14.6182L36.9727 17.0918L48.7241 5.34022C50.8384 3.21303 54.3041 3.21151 56.4202 5.33585L57.5844 6.49009L57.5914 6.49715C59.7038 8.62266 59.7008 12.0864 57.5884 14.1988L45.8341 25.9531L48.2975 28.4166C52.167 27.2017 56.5625 28.1194 59.6291 31.186C62.7217 34.2787 63.6358 38.7371 62.3717 42.6198C62.3001 42.8392 62.1735 43.0366 62.004 43.1931C61.8344 43.3497 61.6275 43.4601 61.4031 43.5139C61.1787 43.5677 60.9443 43.5631 60.7222 43.5005C60.5001 43.4379 60.2977 43.3194 60.1344 43.1563L53.6621 36.684L50.1823 37.6129L49.2533 41.0929L55.7255 47.5651C55.8884 47.7282 56.0069 47.9303 56.0696 48.1522C56.1323 48.3741 56.137 48.6084 56.0835 48.8326C56.0299 49.0569 55.9198 49.2637 55.7636 49.4333C55.6075 49.603 55.4105 49.7298 55.1914 49.8016C51.297 51.0772 46.8382 50.1627 43.7454 47.0698C40.6782 44.0026 39.7602 39.6064 40.9848 35.7273L38.5224 33.2648L28.115 43.6722C27.9482 43.8391 27.7405 43.959 27.5126 44.02L18.0012 46.5709C17.7732 46.6322 17.5332 46.6323 17.3052 46.5713C17.0772 46.5103 16.8693 46.3903 16.7024 46.2234C16.5355 46.0565 16.4155 45.8486 16.3545 45.6206C16.2935 45.3926 16.2936 45.1525 16.3548 44.9246L18.9057 35.4131C18.9668 35.1854 19.0867 34.9777 19.2535 34.811L29.661 24.4035ZM35.0644 19.0001L31.9849 15.9206C31.7969 15.7325 31.6686 15.4931 31.6162 15.2324C31.5638 14.9717 31.5896 14.7013 31.6904 14.4552C32.9508 11.3769 32.3248 7.69843 29.8295 5.20312C28.0827 3.45631 25.7761 2.62667 23.4985 2.70378L28.6985 7.90374C28.8662 8.07144 28.9867 8.28038 29.0479 8.50951C29.1092 8.73863 29.1089 8.97985 29.0472 9.20886L27.7063 14.1852C27.6449 14.4133 27.5246 14.6213 27.3575 14.7883C27.1905 14.9553 26.9825 15.0756 26.7544 15.137L21.7782 16.4779C21.5492 16.5396 21.308 16.5399 21.0788 16.4787C20.8496 16.4175 20.6407 16.297 20.4729 16.1293L15.2676 10.9238C15.1834 13.2087 16.0127 15.5204 17.7626 17.2702C20.2576 19.7654 23.936 20.3909 27.0227 19.1219C27.269 19.0206 27.5397 18.9945 27.8008 19.0468C28.0619 19.0991 28.3017 19.2274 28.49 19.4157L31.5693 22.4952L35.0644 19.0001ZM43.9259 27.8613L40.4307 31.3565L43.4983 34.424C43.686 34.6118 43.8142 34.8507 43.8668 35.111C43.9194 35.3712 43.894 35.6412 43.7938 35.8871C42.5327 38.9842 43.1486 42.6563 45.6537 45.1613C47.3971 46.905 49.7118 47.7373 51.9988 47.6551L46.7947 42.451C46.6273 42.2836 46.507 42.0752 46.4456 41.8467C46.3843 41.6182 46.3841 41.3775 46.4452 41.1489L47.7762 36.1626C47.8373 35.9333 47.9579 35.7242 48.1257 35.5564C48.2935 35.3886 48.5025 35.268 48.7318 35.2068L53.7181 33.8758C53.9467 33.8148 54.1874 33.815 54.4159 33.8764C54.6445 33.9377 54.8528 34.0581 55.0202 34.2255L60.219 39.4242C60.2941 37.1445 59.4612 34.8348 57.7208 33.0944C55.2156 30.5892 51.5432 29.9727 48.4546 31.2253C48.2089 31.325 47.9393 31.35 47.6794 31.2973C47.4195 31.2447 47.1809 31.1166 46.9934 30.9291L43.9259 27.8613ZM46.2863 11.5798L22.1048 35.7614L27.1645 40.8211L51.3459 16.6397L46.2863 11.5798ZM53.2468 14.7388L55.6877 12.2979C56.7579 11.2275 56.7561 9.47314 55.6875 8.39484L54.525 7.24228L54.518 7.23522C53.4501 6.16062 51.6989 6.16062 50.6309 7.23522L50.6278 7.23825L48.187 9.67912L53.2468 14.7388ZM20.8992 38.3575L19.5546 43.3712L24.5684 42.0266L20.8992 38.3575Z" fill="#EEF1F2"/>
</svg>
