<svg width="33" height="18" viewBox="0 0 33 18" fill="none" xmlns="http://www.w3.org/2000/svg">
<path d="M1.67348 12.0976L6.83348 17.3109C6.95743 17.4359 7.10489 17.5351 7.26737 17.6028C7.42985 17.6704 7.60413 17.7053 7.78014 17.7053C7.95616 17.7053 8.13043 17.6704 8.29291 17.6028C8.45539 17.5351 8.60286 17.4359 8.72681 17.3109C8.85178 17.187 8.95097 17.0395 9.01866 16.877C9.08636 16.7145 9.12121 16.5403 9.12121 16.3642C9.12121 16.1882 9.08636 16.0139 9.01866 15.8515C8.95097 15.689 8.85178 15.5415 8.72681 15.4176L3.98014 10.6442H31.1668C31.5204 10.6442 31.8596 10.5038 32.1096 10.2537C32.3597 10.0037 32.5001 9.66452 32.5001 9.3109C32.5001 8.95728 32.3597 8.61814 32.1096 8.36809C31.8596 8.11804 31.5204 7.97757 31.1668 7.97757H3.90014L8.72681 3.1509C8.96319 2.90293 9.09506 2.57349 9.09506 2.2309C9.09506 1.88831 8.96319 1.55887 8.72681 1.3109C8.60286 1.18593 8.45539 1.08674 8.29291 1.01905C8.13043 0.951355 7.95616 0.916504 7.78014 0.916504C7.60413 0.916504 7.42985 0.951355 7.26737 1.01905C7.10489 1.08674 6.95743 1.18593 6.83348 1.3109L1.67348 6.44424C0.924406 7.19424 0.503662 8.2109 0.503662 9.2709C0.503662 10.3309 0.924406 11.3476 1.67348 12.0976Z" fill="#ABBBC4"/>
</svg>
