<svg width="22" height="22" viewBox="0 0 22 22" fill="none" xmlns="http://www.w3.org/2000/svg">
<path d="M17.1507 7.52603C17.0655 7.44011 16.9641 7.37192 16.8524 7.32538C16.7407 7.27884 16.6209 7.25488 16.4999 7.25488C16.3789 7.25488 16.2591 7.27884 16.1474 7.32538C16.0357 7.37192 15.9343 7.44011 15.8491 7.52603L11.6507 11.7244C11.5655 11.8103 11.4641 11.8785 11.3524 11.925C11.2407 11.9715 11.1209 11.9955 10.9999 11.9955C10.8789 11.9955 10.7591 11.9715 10.6474 11.925C10.5357 11.8785 10.4343 11.8103 10.3491 11.7244L6.15075 7.52603C6.06553 7.44011 5.96415 7.37192 5.85244 7.32538C5.74074 7.27884 5.62092 7.25488 5.49991 7.25488C5.3789 7.25488 5.25909 7.27884 5.14738 7.32538C5.03568 7.37192 4.9343 7.44011 4.84908 7.52603C4.67835 7.69778 4.58252 7.93011 4.58252 8.17228C4.58252 8.41445 4.67835 8.64678 4.84908 8.81853L9.05658 13.026C9.57221 13.541 10.2712 13.8303 10.9999 13.8303C11.7287 13.8303 12.4276 13.541 12.9432 13.026L17.1507 8.81853C17.3215 8.64678 17.4173 8.41445 17.4173 8.17228C17.4173 7.93011 17.3215 7.69778 17.1507 7.52603Z" fill="#1DA6C5"/>
</svg>
