<svg width="48" height="48" viewBox="0 0 48 48" fill="none" xmlns="http://www.w3.org/2000/svg">
<rect width="48" height="48" rx="24" fill="#00314B" fill-opacity="0.7"/>
<g clip-path="url(#clip0_746_6731)">
<path d="M15.9998 18.0005C15.6056 18.0016 15.215 17.9244 14.8508 17.7735C14.4865 17.6227 14.1558 17.4011 13.8778 17.1215L12.3338 15.7475C12.1357 15.5709 12.0159 15.3228 12.0007 15.0578C11.9855 14.7928 12.0762 14.5327 12.2528 14.3345C12.4294 14.1364 12.6775 14.0166 12.9425 14.0014C13.2075 13.9862 13.4677 14.0769 13.6658 14.2535L15.2508 15.6675C15.3415 15.7694 15.4522 15.8517 15.5759 15.9092C15.6996 15.9668 15.8338 15.9984 15.9702 16.0021C16.1066 16.0059 16.2423 15.9817 16.369 15.931C16.4956 15.8804 16.6106 15.8043 16.7068 15.7075L20.3108 12.2765C20.5046 12.104 20.7579 12.0136 21.0171 12.0243C21.2764 12.035 21.5213 12.1461 21.7001 12.3341C21.879 12.522 21.9778 12.7721 21.9757 13.0316C21.9736 13.2911 21.8707 13.5395 21.6888 13.7245L18.0998 17.1385C17.8236 17.4132 17.4959 17.6306 17.1356 17.7785C16.7753 17.9265 16.3893 18.0019 15.9998 18.0005ZM35.9998 16.0005C35.9998 15.7353 35.8945 15.481 35.7069 15.2934C35.5194 15.1059 35.265 15.0005 34.9998 15.0005H24.9998C24.7346 15.0005 24.4802 15.1059 24.2927 15.2934C24.1052 15.481 23.9998 15.7353 23.9998 16.0005C23.9998 16.2658 24.1052 16.5201 24.2927 16.7077C24.4802 16.8952 24.7346 17.0005 24.9998 17.0005H34.9998C35.265 17.0005 35.5194 16.8952 35.7069 16.7077C35.8945 16.5201 35.9998 16.2658 35.9998 16.0005ZM18.0998 25.1385L21.6888 21.7245C21.789 21.6354 21.8702 21.5269 21.9276 21.4057C21.985 21.2845 22.0175 21.153 22.023 21.019C22.0286 20.885 22.0071 20.7513 21.9599 20.6257C21.9127 20.5002 21.8407 20.3854 21.7483 20.2883C21.6558 20.1911 21.5448 20.1136 21.4217 20.0602C21.2987 20.0068 21.1661 19.9788 21.032 19.9777C20.8979 19.9766 20.7649 20.0025 20.641 20.0538C20.5171 20.1052 20.4048 20.1809 20.3108 20.2765L16.7108 23.7075C16.5204 23.8896 16.2672 23.9912 16.0038 23.9912C15.7404 23.9912 15.4872 23.8896 15.2968 23.7075L13.7068 22.1225C13.5182 21.9404 13.2656 21.8396 13.0034 21.8419C12.7412 21.8441 12.4904 21.9493 12.305 22.1347C12.1196 22.3201 12.0144 22.5709 12.0121 22.8331C12.0099 23.0953 12.1106 23.3479 12.2928 23.5365L13.8778 25.1215C14.4375 25.6813 15.1957 25.9973 15.9873 26.0004C16.7789 26.0036 17.5396 25.6938 18.1038 25.1385H18.0998ZM35.9998 24.0005C35.9998 23.7353 35.8945 23.481 35.7069 23.2934C35.5194 23.1059 35.265 23.0005 34.9998 23.0005H24.9998C24.7346 23.0005 24.4802 23.1059 24.2927 23.2934C24.1052 23.481 23.9998 23.7353 23.9998 24.0005C23.9998 24.2658 24.1052 24.5201 24.2927 24.7077C24.4802 24.8952 24.7346 25.0005 24.9998 25.0005H34.9998C35.265 25.0005 35.5194 24.8952 35.7069 24.7077C35.8945 24.5201 35.9998 24.2658 35.9998 24.0005ZM18.0998 33.1385L21.6848 29.7245C21.785 29.6354 21.8662 29.5269 21.9236 29.4057C21.981 29.2845 22.0135 29.153 22.019 29.019C22.0246 28.885 22.0031 28.7513 21.9559 28.6257C21.9087 28.5002 21.8367 28.3854 21.7443 28.2883C21.6518 28.1911 21.5408 28.1136 21.4177 28.0602C21.2947 28.0068 21.1621 27.9788 21.028 27.9777C20.8939 27.9766 20.7609 28.0025 20.637 28.0538C20.5131 28.1052 20.4008 28.1809 20.3068 28.2765L16.7068 31.7075C16.6106 31.8043 16.4956 31.8804 16.369 31.931C16.2423 31.9817 16.1066 32.0059 15.9702 32.0021C15.8338 31.9984 15.6996 31.9668 15.5759 31.9092C15.4522 31.8517 15.3415 31.7694 15.2508 31.6675L13.6658 30.2535C13.4677 30.0769 13.2075 29.9862 12.9425 30.0014C12.6775 30.0166 12.4294 30.1364 12.2528 30.3345C12.0762 30.5327 11.9855 30.7928 12.0007 31.0578C12.0159 31.3228 12.1357 31.5709 12.3338 31.7475L13.8778 33.1215C14.4375 33.6813 15.1957 33.9973 15.9873 34.0004C16.7789 34.0036 17.5396 33.6938 18.1038 33.1385H18.0998ZM35.9998 32.0005C35.9998 31.7353 35.8945 31.481 35.7069 31.2934C35.5194 31.1059 35.265 31.0005 34.9998 31.0005H24.9998C24.7346 31.0005 24.4802 31.1059 24.2927 31.2934C24.1052 31.481 23.9998 31.7353 23.9998 32.0005C23.9998 32.2658 24.1052 32.5201 24.2927 32.7077C24.4802 32.8952 24.7346 33.0005 24.9998 33.0005H34.9998C35.265 33.0005 35.5194 32.8952 35.7069 32.7077C35.8945 32.5201 35.9998 32.2658 35.9998 32.0005Z" fill="#EEF1F2"/>
</g>
<defs>
<clipPath id="clip0_746_6731">
<rect width="24" height="24" fill="white" transform="translate(12 12)"/>
</clipPath>
</defs>
</svg>
