<svg width="24" height="25" viewBox="0 0 24 25" fill="none" xmlns="http://www.w3.org/2000/svg">
<path d="M12 0.5C9.62663 0.5 7.30655 1.20379 5.33316 2.52236C3.35977 3.84094 1.8217 5.71509 0.913451 7.9078C0.00519943 10.1005 -0.232441 12.5133 0.230582 14.8411C0.693605 17.1689 1.83649 19.3071 3.51472 20.9853C5.19295 22.6635 7.33115 23.8064 9.65892 24.2694C11.9867 24.7324 14.3995 24.4948 16.5922 23.5866C18.7849 22.6783 20.6591 21.1402 21.9776 19.1668C23.2962 17.1935 24 14.8734 24 12.5C23.9966 9.31846 22.7312 6.26821 20.4815 4.01852C18.2318 1.76883 15.1815 0.503441 12 0.5ZM12 22.5C10.0222 22.5 8.08879 21.9135 6.4443 20.8147C4.79981 19.7159 3.51809 18.1541 2.76121 16.3268C2.00433 14.4996 1.8063 12.4889 2.19215 10.5491C2.578 8.60929 3.53041 6.82746 4.92894 5.42893C6.32746 4.03041 8.10929 3.078 10.0491 2.69215C11.9889 2.3063 13.9996 2.50433 15.8268 3.2612C17.6541 4.01808 19.2159 5.29981 20.3147 6.9443C21.4135 8.58879 22 10.5222 22 12.5C21.9971 15.1513 20.9426 17.6931 19.0679 19.5679C17.1931 21.4426 14.6513 22.4971 12 22.5Z" fill="#718088"/>
<path d="M10.4998 17.4999C10.2369 17.5001 9.97644 17.4485 9.73346 17.3479C9.49049 17.2474 9.26973 17.0999 9.08382 16.9139L5.29982 13.2149C5.11019 13.0293 5.00207 12.7759 4.99926 12.5105C4.99645 12.2452 5.09916 11.9896 5.28481 11.7999C5.47047 11.6103 5.72384 11.5022 5.98921 11.4994C6.25457 11.4966 6.51019 11.5993 6.69982 11.7849L10.4928 15.4919L17.2988 8.79192C17.4907 8.62305 17.7401 8.53409 17.9955 8.54333C18.251 8.55257 18.4933 8.65931 18.6725 8.84161C18.8517 9.0239 18.9543 9.26792 18.9592 9.52352C18.9641 9.77912 18.8709 10.0269 18.6988 10.2159L11.9058 16.9229C11.7209 17.1068 11.5015 17.2525 11.2603 17.3515C11.019 17.4505 10.7606 17.5009 10.4998 17.4999Z" fill="#718088"/>
</svg>
