<svg width="24" height="25" viewBox="0 0 24 25" fill="none" xmlns="http://www.w3.org/2000/svg">
<g clip-path="url(#clip0_821_2800)">
<path d="M23.2711 9.9183C21.7201 7.3923 18.1921 3.1543 12.0001 3.1543C5.80805 3.1543 2.28005 7.3923 0.729051 9.9183C0.249579 10.6938 -0.00439453 11.5875 -0.00439453 12.4993C-0.00439453 13.4111 0.249579 14.3048 0.729051 15.0803C2.28005 17.6063 5.80805 21.8443 12.0001 21.8443C18.1921 21.8443 21.7201 17.6063 23.2711 15.0803C23.7505 14.3048 24.0045 13.4111 24.0045 12.4993C24.0045 11.5875 23.7505 10.6938 23.2711 9.9183ZM21.5661 14.0333C20.2341 16.1993 17.2191 19.8443 12.0001 19.8443C6.78105 19.8443 3.76605 16.1993 2.43405 14.0333C2.14919 13.5723 1.9983 13.0412 1.9983 12.4993C1.9983 11.9574 2.14919 11.4263 2.43405 10.9653C3.76605 8.7993 6.78105 5.1543 12.0001 5.1543C17.2191 5.1543 20.2341 8.7953 21.5661 10.9653C21.8509 11.4263 22.0018 11.9574 22.0018 12.4993C22.0018 13.0412 21.8509 13.5723 21.5661 14.0333Z" fill="#EEF1F2"/>
<path d="M12 7.5C11.0111 7.5 10.0444 7.79324 9.22215 8.34265C8.39991 8.89206 7.75904 9.67295 7.3806 10.5866C7.00217 11.5002 6.90315 12.5055 7.09608 13.4755C7.289 14.4454 7.76521 15.3363 8.46447 16.0355C9.16373 16.7348 10.0546 17.211 11.0246 17.4039C11.9945 17.5969 12.9998 17.4978 13.9134 17.1194C14.827 16.741 15.6079 16.1001 16.1574 15.2779C16.7068 14.4556 17 13.4889 17 12.5C16.9984 11.1744 16.4711 9.90356 15.5338 8.96622C14.5964 8.02888 13.3256 7.50159 12 7.5ZM12 15.5C11.4067 15.5 10.8266 15.3241 10.3333 14.9944C9.83994 14.6648 9.45543 14.1962 9.22836 13.6481C9.0013 13.0999 8.94189 12.4967 9.05765 11.9147C9.1734 11.3328 9.45912 10.7982 9.87868 10.3787C10.2982 9.95912 10.8328 9.6734 11.4147 9.55764C11.9967 9.44189 12.5999 9.5013 13.1481 9.72836C13.6962 9.95542 14.1648 10.3399 14.4944 10.8333C14.8241 11.3266 15 11.9067 15 12.5C15 13.2957 14.6839 14.0587 14.1213 14.6213C13.5587 15.1839 12.7957 15.5 12 15.5Z" fill="#EEF1F2"/>
</g>
<defs>
<clipPath id="clip0_821_2800">
<rect width="24" height="24" fill="white" transform="translate(0 0.5)"/>
</clipPath>
</defs>
</svg>
