<svg width="24" height="25" viewBox="0 0 24 25" fill="none" xmlns="http://www.w3.org/2000/svg">
<g clip-path="url(#clip0_499_10800)">
<path d="M4.5 18H2C1.46957 18 0.960859 18.2107 0.585786 18.5858C0.210714 18.9609 0 19.4696 0 20L0 22.5C0 23.0304 0.210714 23.5391 0.585786 23.9142C0.960859 24.2893 1.46957 24.5 2 24.5H4.5C5.03043 24.5 5.53914 24.2893 5.91421 23.9142C6.28929 23.5391 6.5 23.0304 6.5 22.5V20C6.5 19.4696 6.28929 18.9609 5.91421 18.5858C5.53914 18.2107 5.03043 18 4.5 18ZM4.5 22.5H2V20H4.5V22.5Z" fill="#EEF1F2"/>
<path d="M22 18H19.5C18.9696 18 18.4609 18.2107 18.0858 18.5858C17.7107 18.9609 17.5 19.4696 17.5 20V22.5C17.5 23.0304 17.7107 23.5391 18.0858 23.9142C18.4609 24.2893 18.9696 24.5 19.5 24.5H22C22.5304 24.5 23.0391 24.2893 23.4142 23.9142C23.7893 23.5391 24 23.0304 24 22.5V20C24 19.4696 23.7893 18.9609 23.4142 18.5858C23.0391 18.2107 22.5304 18 22 18ZM22 22.5H19.5V20H22V22.5Z" fill="#EEF1F2"/>
<path d="M4.5 9.25H2C1.46957 9.25 0.960859 9.46071 0.585786 9.83579C0.210714 10.2109 0 10.7196 0 11.25L0 13.75C0 14.2804 0.210714 14.7891 0.585786 15.1642C0.960859 15.5393 1.46957 15.75 2 15.75H4.5C5.03043 15.75 5.53914 15.5393 5.91421 15.1642C6.28929 14.7891 6.5 14.2804 6.5 13.75V11.25C6.5 10.7196 6.28929 10.2109 5.91421 9.83579C5.53914 9.46071 5.03043 9.25 4.5 9.25ZM4.5 13.75H2V11.25H4.5V13.75Z" fill="#EEF1F2"/>
<path d="M22 9.25H19.5C18.9696 9.25 18.4609 9.46071 18.0858 9.83579C17.7107 10.2109 17.5 10.7196 17.5 11.25V13.75C17.5 14.2804 17.7107 14.7891 18.0858 15.1642C18.4609 15.5393 18.9696 15.75 19.5 15.75H22C22.5304 15.75 23.0391 15.5393 23.4142 15.1642C23.7893 14.7891 24 14.2804 24 13.75V11.25C24 10.7196 23.7893 10.2109 23.4142 9.83579C23.0391 9.46071 22.5304 9.25 22 9.25ZM22 13.75H19.5V11.25H22V13.75Z" fill="#EEF1F2"/>
<path d="M4.5 0.5H2C1.46957 0.5 0.960859 0.710714 0.585786 1.08579C0.210714 1.46086 0 1.96957 0 2.5L0 5C0 5.53043 0.210714 6.03914 0.585786 6.41421C0.960859 6.78929 1.46957 7 2 7H4.5C5.03043 7 5.53914 6.78929 5.91421 6.41421C6.28929 6.03914 6.5 5.53043 6.5 5V2.5C6.5 1.96957 6.28929 1.46086 5.91421 1.08579C5.53914 0.710714 5.03043 0.5 4.5 0.5V0.5ZM4.5 5H2V2.5H4.5V5Z" fill="#EEF1F2"/>
<path d="M13.25 18H10.75C10.2196 18 9.71086 18.2107 9.33579 18.5858C8.96071 18.9609 8.75 19.4696 8.75 20V22.5C8.75 23.0304 8.96071 23.5391 9.33579 23.9142C9.71086 24.2893 10.2196 24.5 10.75 24.5H13.25C13.7804 24.5 14.2891 24.2893 14.6642 23.9142C15.0393 23.5391 15.25 23.0304 15.25 22.5V20C15.25 19.4696 15.0393 18.9609 14.6642 18.5858C14.2891 18.2107 13.7804 18 13.25 18ZM13.25 22.5H10.75V20H13.25V22.5Z" fill="#EEF1F2"/>
<path d="M13.25 9.25H10.75C10.2196 9.25 9.71086 9.46071 9.33579 9.83579C8.96071 10.2109 8.75 10.7196 8.75 11.25V13.75C8.75 14.2804 8.96071 14.7891 9.33579 15.1642C9.71086 15.5393 10.2196 15.75 10.75 15.75H13.25C13.7804 15.75 14.2891 15.5393 14.6642 15.1642C15.0393 14.7891 15.25 14.2804 15.25 13.75V11.25C15.25 10.7196 15.0393 10.2109 14.6642 9.83579C14.2891 9.46071 13.7804 9.25 13.25 9.25ZM13.25 13.75H10.75V11.25H13.25V13.75Z" fill="#EEF1F2"/>
<path d="M13.25 0.5H10.75C10.2196 0.5 9.71086 0.710714 9.33579 1.08579C8.96071 1.46086 8.75 1.96957 8.75 2.5V5C8.75 5.53043 8.96071 6.03914 9.33579 6.41421C9.71086 6.78929 10.2196 7 10.75 7H13.25C13.7804 7 14.2891 6.78929 14.6642 6.41421C15.0393 6.03914 15.25 5.53043 15.25 5V2.5C15.25 1.96957 15.0393 1.46086 14.6642 1.08579C14.2891 0.710714 13.7804 0.5 13.25 0.5V0.5ZM13.25 5H10.75V2.5H13.25V5Z" fill="#EEF1F2"/>
<path d="M22 0.5H19.5C18.9696 0.5 18.4609 0.710714 18.0858 1.08579C17.7107 1.46086 17.5 1.96957 17.5 2.5V5C17.5 5.53043 17.7107 6.03914 18.0858 6.41421C18.4609 6.78929 18.9696 7 19.5 7H22C22.5304 7 23.0391 6.78929 23.4142 6.41421C23.7893 6.03914 24 5.53043 24 5V2.5C24 1.96957 23.7893 1.46086 23.4142 1.08579C23.0391 0.710714 22.5304 0.5 22 0.5V0.5ZM22 5H19.5V2.5H22V5Z" fill="#EEF1F2"/>
</g>
<defs>
<clipPath id="clip0_499_10800">
<rect width="24" height="24" fill="white" transform="translate(0 0.5)"/>
</clipPath>
</defs>
</svg>
