<svg width="48" height="48" viewBox="0 0 48 48" fill="none" xmlns="http://www.w3.org/2000/svg">
<rect y="48" width="48" height="48" rx="10" transform="rotate(-90 0 48)" fill="#012335"/>
<path d="M31.2635 15.7072L15.7071 31.2636C15.3166 31.6541 15.3166 32.2873 15.7071 32.6778C16.0976 33.0683 16.7308 33.0683 17.1213 32.6778L32.6777 17.1215C33.0682 16.7309 33.0682 16.0978 32.6777 15.7072C32.2871 15.3167 31.654 15.3167 31.2635 15.7072Z" fill="#AA2E2E"/>
<path d="M32.6778 31.2635L17.1214 15.7071C16.7309 15.3166 16.0977 15.3166 15.7072 15.7071C15.3167 16.0976 15.3167 16.7308 15.7072 17.1213L31.2635 32.6777C31.6541 33.0682 32.2872 33.0682 32.6778 32.6777C33.0683 32.2871 33.0683 31.654 32.6778 31.2635Z" fill="#AA2E2E"/>
</svg>
