<svg width="48" height="48" viewBox="0 0 48 48" fill="none" xmlns="http://www.w3.org/2000/svg">
<rect width="48" height="48" rx="24" fill="#F39911"/>
<g clip-path="url(#clip0_746_6737)">
<path d="M19 18H35C35.2652 18 35.5196 17.8946 35.7071 17.7071C35.8946 17.5196 36 17.2652 36 17C36 16.7348 35.8946 16.4804 35.7071 16.2929C35.5196 16.1054 35.2652 16 35 16H19C18.7348 16 18.4804 16.1054 18.2929 16.2929C18.1054 16.4804 18 16.7348 18 17C18 17.2652 18.1054 17.5196 18.2929 17.7071C18.4804 17.8946 18.7348 18 19 18Z" fill="#EEF1F2"/>
<path d="M35 23H19C18.7348 23 18.4804 23.1054 18.2929 23.2929C18.1054 23.4804 18 23.7348 18 24C18 24.2652 18.1054 24.5196 18.2929 24.7071C18.4804 24.8947 18.7348 25 19 25H35C35.2652 25 35.5196 24.8947 35.7071 24.7071C35.8946 24.5196 36 24.2652 36 24C36 23.7348 35.8946 23.4804 35.7071 23.2929C35.5196 23.1054 35.2652 23 35 23Z" fill="#EEF1F2"/>
<path d="M35 30H19C18.7348 30 18.4804 30.1054 18.2929 30.2929C18.1054 30.4804 18 30.7348 18 31C18 31.2652 18.1054 31.5196 18.2929 31.7071C18.4804 31.8947 18.7348 32 19 32H35C35.2652 32 35.5196 31.8947 35.7071 31.7071C35.8946 31.5196 36 31.2652 36 31C36 30.7348 35.8946 30.4804 35.7071 30.2929C35.5196 30.1054 35.2652 30 35 30Z" fill="#EEF1F2"/>
<path d="M14 19C15.1046 19 16 18.1046 16 17C16 15.8954 15.1046 15 14 15C12.8954 15 12 15.8954 12 17C12 18.1046 12.8954 19 14 19Z" fill="#EEF1F2"/>
<path d="M14 26C15.1046 26 16 25.1046 16 24C16 22.8954 15.1046 22 14 22C12.8954 22 12 22.8954 12 24C12 25.1046 12.8954 26 14 26Z" fill="#EEF1F2"/>
<path d="M14 33C15.1046 33 16 32.1046 16 31C16 29.8954 15.1046 29 14 29C12.8954 29 12 29.8954 12 31C12 32.1046 12.8954 33 14 33Z" fill="#EEF1F2"/>
</g>
<defs>
<clipPath id="clip0_746_6737">
<rect width="24" height="24" fill="white" transform="translate(12 12)"/>
</clipPath>
</defs>
</svg>
