<svg width="24" height="24" viewBox="0 0 24 24" fill="none" xmlns="http://www.w3.org/2000/svg">
<g clip-path="url(#clip0_459_216)">
<path d="M12 0C9.62663 0 7.30655 0.703788 5.33316 2.02236C3.35977 3.34094 1.8217 5.21509 0.913451 7.4078C0.00519943 9.60051 -0.232441 12.0133 0.230582 14.3411C0.693605 16.6689 1.83649 18.8071 3.51472 20.4853C5.19295 22.1635 7.33115 23.3064 9.65892 23.7694C11.9867 24.2324 14.3995 23.9948 16.5922 23.0866C18.7849 22.1783 20.6591 20.6402 21.9776 18.6668C23.2962 16.6935 24 14.3734 24 12C23.9966 8.81846 22.7312 5.76821 20.4815 3.51852C18.2318 1.26883 15.1815 0.00344108 12 0ZM12 22C10.0222 22 8.08879 21.4135 6.4443 20.3147C4.79981 19.2159 3.51809 17.6541 2.76121 15.8268C2.00433 13.9996 1.8063 11.9889 2.19215 10.0491C2.578 8.10929 3.53041 6.32746 4.92894 4.92893C6.32746 3.53041 8.10929 2.578 10.0491 2.19215C11.9889 1.8063 13.9996 2.00433 15.8268 2.7612C17.6541 3.51808 19.2159 4.79981 20.3147 6.4443C21.4135 8.08879 22 10.0222 22 12C21.9971 14.6513 20.9426 17.1931 19.0679 19.0679C17.1931 20.9426 14.6513 21.9971 12 22Z" fill="#EEF1F2"/>
<path d="M10.4998 16.9999C10.2369 17.0001 9.97644 16.9485 9.73346 16.8479C9.49049 16.7474 9.26973 16.5999 9.08382 16.4139L5.29982 12.7149C5.11019 12.5293 5.00207 12.2759 4.99926 12.0105C4.99645 11.7452 5.09916 11.4896 5.28481 11.2999C5.47047 11.1103 5.72384 11.0022 5.98921 10.9994C6.25457 10.9966 6.51019 11.0993 6.69982 11.2849L10.4928 14.9919L17.2988 8.29192C17.4907 8.12305 17.7401 8.03409 17.9955 8.04333C18.251 8.05257 18.4933 8.15931 18.6725 8.34161C18.8517 8.5239 18.9543 8.76792 18.9592 9.02352C18.9641 9.27912 18.8709 9.52689 18.6988 9.71592L11.9058 16.4229C11.7209 16.6068 11.5015 16.7525 11.2603 16.8515C11.019 16.9505 10.7606 17.0009 10.4998 16.9999Z" fill="#EEF1F2"/>
</g>
<defs>
<clipPath id="clip0_459_216">
<rect width="24" height="24" fill="white"/>
</clipPath>
</defs>
</svg>
