<svg width="14" height="8" viewBox="0 0 14 8" fill="none" xmlns="http://www.w3.org/2000/svg">
<path d="M1.66231 7.79282H12.8423C13.0401 7.79199 13.2332 7.73253 13.3972 7.62197C13.5611 7.51141 13.6887 7.3547 13.7636 7.17167C13.8385 6.98864 13.8575 6.7875 13.8181 6.59369C13.7787 6.39987 13.6827 6.22209 13.5423 6.08282L7.96231 0.502829C7.86935 0.409101 7.75875 0.334707 7.63689 0.283938C7.51503 0.23317 7.38432 0.207031 7.25231 0.207031C7.1203 0.207031 6.98959 0.23317 6.86773 0.283938C6.74588 0.334707 6.63527 0.409101 6.54231 0.502829L0.962312 6.08282C0.82189 6.22209 0.725919 6.39987 0.686534 6.59369C0.647149 6.7875 0.666118 6.98864 0.741043 7.17167C0.815969 7.3547 0.943486 7.51141 1.10747 7.62197C1.27145 7.73253 1.46454 7.79199 1.66231 7.79282Z" fill="#0E981B"/>
</svg>
